0
SECTION
2
HEADER
0
ENDSEC
0
SECTION
2
TABLES
0
TABLE
2
LAYER
70
4
0
LAYER
2
SHEETS
70
0
62
7
6
CONTINUOUS
0
LAYER
2
PARTS
70
0
62
1
6
CONTINUOUS
0
LAYER
2
HOLES
70
0
62
5
6
CONTINUOUS
0
LAYER
2
LABELS
70
0
62
3
6
CONTINUOUS
0
ENDTAB
0
ENDSEC
0
SECTION
2
ENTITIES
0
LWPOLYLINE
8
SHEETS
90
4
70
1
10
0.000000
20
0.000000
10
1500.000000
20
0.000000
10
1500.000000
20
1500.000000
10
0.000000
20
1500.000000
0
LWPOLYLINE
8
PARTS
90
8
70
1
10
41.522797
20
63.733101
10
0.000000
20
38.693844
10
57.613806
20
28.332775
10
86.135647
20
0.000000
10
83.259499
20
39.499058
10
120.447716
20
92.141522
10
69.245331
20
73.548472
10
28.912715
20
113.308991
0
TEXT
8
LABELS
10
60.223858
20
56.654495
40
1.000000
1
neregulara_zvaigzne
0
LWPOLYLINE
8
PARTS
90
8
70
1
10
41.767530
20
143.503799
10
0.244733
20
118.464542
10
57.858539
20
108.103473
10
86.380380
20
79.770698
10
83.504232
20
119.269756
10
120.692449
20
171.912220
10
69.490064
20
153.319170
10
29.157448
20
193.079689
0
TEXT
8
LABELS
10
60.468591
20
136.425194
40
1.000000
1
neregulara_zvaigzne
0
LWPOLYLINE
8
PARTS
90
8
70
1
10
42.012264
20
223.274498
10
0.489467
20
198.235241
10
58.103273
20
187.874172
10
86.625114
20
159.541397
10
83.748966
20
199.040455
10
120.937183
20
251.682919
10
69.734798
20
233.089869
10
29.402182
20
272.850388
0
TEXT
8
LABELS
10
60.713325
20
216.195892
40
1.000000
1
neregulara_zvaigzne
0
LWPOLYLINE
8
PARTS
90
8
70
1
10
41.522797
20
303.177232
10
0.000000
20
278.137975
10
57.613806
20
267.776906
10
86.135647
20
239.444131
10
83.259499
20
278.943189
10
120.447716
20
331.585653
10
69.245331
20
312.992603
10
28.912715
20
352.753122
0
TEXT
8
LABELS
10
60.223858
20
296.098626
40
1.000000
1
neregulara_zvaigzne
0
LWPOLYLINE
8
PARTS
90
8
70
1
10
41.767530
20
382.947930
10
0.244733
20
357.908673
10
57.858539
20
347.547604
10
86.380380
20
319.214829
10
83.504232
20
358.713887
10
120.692449
20
411.356351
10
69.490064
20
392.763301
10
29.157448
20
432.523820
0
TEXT
8
LABELS
10
60.468591
20
375.869325
40
1.000000
1
neregulara_zvaigzne
0
LWPOLYLINE
8
PARTS
90
8
70
1
10
42.012264
20
462.718628
10
0.489467
20
437.679371
10
58.103273
20
427.318302
10
86.625114
20
398.985527
10
83.748966
20
438.484585
10
120.937183
20
491.127049
10
69.734798
20
472.533999
10
29.402182
20
512.294518
0
TEXT
8
LABELS
10
60.713325
20
455.640023
40
1.000000
1
neregulara_zvaigzne
0
LWPOLYLINE
8
PARTS
90
8
70
1
10
41.522797
20
542.621363
10
0.000000
20
517.582106
10
57.613806
20
507.221037
10
86.135647
20
478.888262
10
83.259499
20
518.387320
10
120.447716
20
571.029784
10
69.245331
20
552.436734
10
28.912715
20
592.197253
0
TEXT
8
LABELS
10
60.223858
20
535.542757
40
1.000000
1
neregulara_zvaigzne
0
LWPOLYLINE
8
PARTS
90
8
70
1
10
41.767530
20
622.392061
10
0.244733
20
597.352804
10
57.858539
20
586.991735
10
86.380380
20
558.658960
10
83.504232
20
598.158018
10
120.692449
20
650.800482
10
69.490064
20
632.207432
10
29.157448
20
671.967951
0
TEXT
8
LABELS
10
60.468591
20
615.313455
40
1.000000
1
neregulara_zvaigzne
0
LWPOLYLINE
8
PARTS
90
8
70
1
10
42.012264
20
702.162759
10
0.489467
20
677.123502
10
58.103273
20
666.762433
10
86.625114
20
638.429658
10
83.748966
20
677.928716
10
120.937183
20
730.571180
10
69.734798
20
711.978130
10
29.402182
20
751.738649
0
TEXT
8
LABELS
10
60.713325
20
695.084154
40
1.000000
1
neregulara_zvaigzne
0
LWPOLYLINE
8
PARTS
90
8
70
1
10
41.522797
20
782.065493
10
0.000000
20
757.026236
10
57.613806
20
746.665167
10
86.135647
20
718.332392
10
83.259499
20
757.831450
10
120.447716
20
810.473914
10
69.245331
20
791.880864
10
28.912715
20
831.641383
0
TEXT
8
LABELS
10
60.223858
20
774.986888
40
1.000000
1
neregulara_zvaigzne
0
LWPOLYLINE
8
PARTS
90
8
70
1
10
41.767530
20
861.836192
10
0.244733
20
836.796935
10
57.858539
20
826.435866
10
86.380380
20
798.103091
10
83.504232
20
837.602149
10
120.692449
20
890.244613
10
69.490064
20
871.651563
10
29.157448
20
911.412082
0
TEXT
8
LABELS
10
60.468591
20
854.757586
40
1.000000
1
neregulara_zvaigzne
0
LWPOLYLINE
8
PARTS
90
8
70
1
10
42.012264
20
941.606890
10
0.489467
20
916.567633
10
58.103273
20
906.206564
10
86.625114
20
877.873789
10
83.748966
20
917.372847
10
120.937183
20
970.015311
10
69.734798
20
951.422261
10
29.402182
20
991.182780
0
TEXT
8
LABELS
10
60.713325
20
934.528284
40
1.000000
1
neregulara_zvaigzne
0
LWPOLYLINE
8
PARTS
90
8
70
1
10
41.522797
20
1021.509624
10
0.000000
20
996.470367
10
57.613806
20
986.109298
10
86.135647
20
957.776523
10
83.259499
20
997.275581
10
120.447716
20
1049.918045
10
69.245331
20
1031.324995
10
28.912715
20
1071.085514
0
TEXT
8
LABELS
10
60.223858
20
1014.431019
40
1.000000
1
neregulara_zvaigzne
0
LWPOLYLINE
8
PARTS
90
8
70
1
10
41.767530
20
1101.280323
10
0.244733
20
1076.241066
10
57.858539
20
1065.879997
10
86.380380
20
1037.547221
10
83.504232
20
1077.046280
10
120.692449
20
1129.688744
10
69.490064
20
1111.095693
10
29.157448
20
1150.856213
0
TEXT
8
LABELS
10
60.468591
20
1094.201717
40
1.000000
1
neregulara_zvaigzne
0
LWPOLYLINE
8
PARTS
90
8
70
1
10
42.012264
20
1181.051021
10
0.489467
20
1156.011764
10
58.103273
20
1145.650695
10
86.625114
20
1117.317920
10
83.748966
20
1156.816978
10
120.937183
20
1209.459442
10
69.734798
20
1190.866392
10
29.402182
20
1230.626911
0
TEXT
8
LABELS
10
60.713325
20
1173.972415
40
1.000000
1
neregulara_zvaigzne
0
LWPOLYLINE
8
PARTS
90
8
70
1
10
41.522797
20
1260.953755
10
0.000000
20
1235.914498
10
57.613806
20
1225.553429
10
86.135647
20
1197.220654
10
83.259499
20
1236.719712
10
120.447716
20
1289.362176
10
69.245331
20
1270.769126
10
28.912715
20
1310.529645
0
TEXT
8
LABELS
10
60.223858
20
1253.875150
40
1.000000
1
neregulara_zvaigzne
0
LWPOLYLINE
8
PARTS
90
8
70
1
10
41.767530
20
1340.724453
10
0.244733
20
1315.685196
10
57.858539
20
1305.324127
10
86.380380
20
1276.991352
10
83.504232
20
1316.490410
10
120.692449
20
1369.132874
10
69.490064
20
1350.539824
10
29.157448
20
1390.300343
0
TEXT
8
LABELS
10
60.468591
20
1333.645848
40
1.000000
1
neregulara_zvaigzne
0
LWPOLYLINE
8
PARTS
90
8
70
1
10
42.012264
20
1420.495152
10
0.489467
20
1395.455895
10
58.103273
20
1385.094826
10
86.625114
20
1356.762051
10
83.748966
20
1396.261109
10
120.937183
20
1448.903573
10
69.734798
20
1430.310523
10
29.402182
20
1470.071042
0
TEXT
8
LABELS
10
60.713325
20
1413.416546
40
1.000000
1
neregulara_zvaigzne
0
LWPOLYLINE
8
PARTS
90
8
70
1
10
126.757608
20
1264.555159
10
85.234811
20
1239.515902
10
142.848617
20
1229.154833
10
171.370458
20
1200.822058
10
168.494310
20
1240.321116
10
205.682527
20
1292.963580
10
154.480142
20
1274.370529
10
114.147526
20
1314.131049
0
TEXT
8
LABELS
10
145.458669
20
1257.476553
40
1.000000
1
neregulara_zvaigzne
0
LWPOLYLINE
8
PARTS
90
8
70
1
10
126.757608
20
1025.111028
10
85.234811
20
1000.071771
10
142.848617
20
989.710702
10
171.370458
20
961.377927
10
168.494310
20
1000.876985
10
205.682527
20
1053.519449
10
154.480142
20
1034.926399
10
114.147526
20
1074.686918
0
TEXT
8
LABELS
10
145.458669
20
1018.032422
40
1.000000
1
neregulara_zvaigzne
0
LWPOLYLINE
8
PARTS
90
8
70
1
10
126.757608
20
785.666897
10
85.234811
20
760.627640
10
142.848617
20
750.266571
10
171.370458
20
721.933796
10
168.494310
20
761.432854
10
205.682527
20
814.075318
10
154.480142
20
795.482268
10
114.147526
20
835.242787
0
TEXT
8
LABELS
10
145.458669
20
778.588291
40
1.000000
1
neregulara_zvaigzne
0
LWPOLYLINE
8
PARTS
90
8
70
1
10
126.757608
20
546.222766
10
85.234811
20
521.183509
10
142.848617
20
510.822440
10
171.370458
20
482.489665
10
168.494310
20
521.988723
10
205.682527
20
574.631187
10
154.480142
20
556.038137
10
114.147526
20
595.798656
0
TEXT
8
LABELS
10
145.458669
20
539.144161
40
1.000000
1
neregulara_zvaigzne
0
LWPOLYLINE
8
PARTS
90
8
70
1
10
126.757608
20
306.778635
10
85.234811
20
281.739378
10
142.848617
20
271.378309
10
171.370458
20
243.045534
10
168.494310
20
282.544592
10
205.682527
20
335.187056
10
154.480142
20
316.594006
10
114.147526
20
356.354525
0
TEXT
8
LABELS
10
145.458669
20
299.700030
40
1.000000
1
neregulara_zvaigzne
0
LWPOLYLINE
8
PARTS
90
8
70
1
10
126.757608
20
67.334504
10
85.234811
20
42.295247
10
142.848617
20
31.934178
10
171.370458
20
3.601403
10
168.494310
20
43.100461
10
205.682527
20
95.742925
10
154.480142
20
77.149875
10
114.147526
20
116.910394
0
TEXT
8
LABELS
10
145.458669
20
60.255899
40
1.000000
1
neregulara_zvaigzne
0
LWPOLYLINE
8
PARTS
90
8
70
1
10
127.002341
20
1344.325857
10
85.479545
20
1319.286600
10
143.093350
20
1308.925531
10
171.615192
20
1280.592756
10
168.739044
20
1320.091814
10
205.927260
20
1372.734278
10
154.724875
20
1354.141228
10
114.392259
20
1393.901747
0
TEXT
8
LABELS
10
145.703402
20
1337.247251
40
1.000000
1
neregulara_zvaigzne
0
LWPOLYLINE
8
PARTS
90
8
70
1
10
127.002341
20
1104.881726
10
85.479545
20
1079.842469
10
143.093350
20
1069.481400
10
171.615192
20
1041.148625
10
168.739044
20
1080.647683
10
205.927260
20
1133.290147
10
154.724875
20
1114.697097
10
114.392259
20
1154.457616
0
TEXT
8
LABELS
10
145.703402
20
1097.803121
40
1.000000
1
neregulara_zvaigzne
0
LWPOLYLINE
8
PARTS
90
8
70
1
10
127.002341
20
865.437595
10
85.479545
20
840.398338
10
143.093350
20
830.037269
10
171.615192
20
801.704494
10
168.739044
20
841.203552
10
205.927260
20
893.846016
10
154.724875
20
875.252966
10
114.392259
20
915.013485
0
TEXT
8
LABELS
10
145.703402
20
858.358990
40
1.000000
1
neregulara_zvaigzne
0
LWPOLYLINE
8
PARTS
90
8
70
1
10
127.002341
20
625.993464
10
85.479545
20
600.954207
10
143.093350
20
590.593138
10
171.615192
20
562.260363
10
168.739044
20
601.759421
10
205.927260
20
654.401885
10
154.724875
20
635.808835
10
114.392259
20
675.569354
0
TEXT
8
LABELS
10
145.703402
20
618.914859
40
1.000000
1
neregulara_zvaigzne
0
LWPOLYLINE
8
PARTS
90
8
70
1
10
127.002341
20
386.549334
10
85.479545
20
361.510077
10
143.093350
20
351.149008
10
171.615192
20
322.816233
10
168.739044
20
362.315291
10
205.927260
20
414.957755
10
154.724875
20
396.364705
10
114.392259
20
436.125224
0
TEXT
8
LABELS
10
145.703402
20
379.470728
40
1.000000
1
neregulara_zvaigzne
0
LWPOLYLINE
8
PARTS
90
8
70
1
10
127.002341
20
147.105203
10
85.479545
20
122.065946
10
143.093350
20
111.704877
10
171.615192
20
83.372102
10
168.739044
20
122.871160
10
205.927260
20
175.513624
10
154.724875
20
156.920574
10
114.392259
20
196.681093
0
TEXT
8
LABELS
10
145.703402
20
140.026597
40
1.000000
1
neregulara_zvaigzne
0
LWPOLYLINE
8
PARTS
90
8
70
1
10
127.247075
20
1424.096555
10
85.724278
20
1399.057298
10
143.338084
20
1388.696229
10
171.859925
20
1360.363454
10
168.983777
20
1399.862512
10
206.171994
20
1452.504976
10
154.969609
20
1433.911926
10
114.636993
20
1473.672445
0
TEXT
8
LABELS
10
145.948136
20
1417.017950
40
1.000000
1
neregulara_zvaigzne
0
LWPOLYLINE
8
PARTS
90
8
70
1
10
181.104392
20
1190.745226
10
139.581595
20
1165.705969
10
197.195401
20
1155.344900
10
225.717242
20
1127.012125
10
222.841094
20
1166.511183
10
260.029311
20
1219.153647
10
208.826926
20
1200.560596
10
168.494310
20
1240.321116
0
TEXT
8
LABELS
10
199.805453
20
1183.666620
40
1.000000
1
neregulara_zvaigzne
0
LWPOLYLINE
8
PARTS
90
8
70
1
10
181.104392
20
951.301095
10
139.581595
20
926.261838
10
197.195401
20
915.900769
10
225.717242
20
887.567994
10
222.841094
20
927.067052
10
260.029311
20
979.709516
10
208.826926
20
961.116466
10
168.494310
20
1000.876985
0
TEXT
8
LABELS
10
199.805453
20
944.222489
40
1.000000
1
neregulara_zvaigzne
0
LWPOLYLINE
8
PARTS
90
8
70
1
10
181.104392
20
711.856964
10
139.581595
20
686.817707
10
197.195401
20
676.456638
10
225.717242
20
648.123863
10
222.841094
20
687.622921
10
260.029311
20
740.265385
10
208.826926
20
721.672335
10
168.494310
20
761.432854
0
TEXT
8
LABELS
10
199.805453
20
704.778358
40
1.000000
1
neregulara_zvaigzne
0
LWPOLYLINE
8
PARTS
90
8
70
1
10
181.104392
20
472.412833
10
139.581595
20
447.373576
10
197.195401
20
437.012507
10
225.717242
20
408.679732
10
222.841094
20
448.178790
10
260.029311
20
500.821254
10
208.826926
20
482.228204
10
168.494310
20
521.988723
0
TEXT
8
LABELS
10
199.805453
20
465.334228
40
1.000000
1
neregulara_zvaigzne
0
LWPOLYLINE
8
PARTS
90
8
70
1
10
181.104392
20
232.968702
10
139.581595
20
207.929445
10
197.195401
20
197.568376
10
225.717242
20
169.235601
10
222.841094
20
208.734659
10
260.029311
20
261.377123
10
208.826926
20
242.784073
10
168.494310
20
282.544592
0
TEXT
8
LABELS
10
199.805453
20
225.890097
40
1.000000
1
neregulara_zvaigzne
0
LWPOLYLINE
8
PARTS
90
8
70
1
10
211.992419
20
70.935908
10
170.469622
20
45.896651
10
228.083428
20
35.535582
10
256.605269
20
7.202807
10
253.729121
20
46.701865
10
290.917338
20
99.344329
10
239.714953
20
80.751279
10
199.382337
20
120.511798
0
TEXT
8
LABELS
10
230.693480
20
63.857302
40
1.000000
1
neregulara_zvaigzne
0
LWPOLYLINE
8
PARTS
90
8
70
1
10
212.237153
20
1347.927260
10
170.714356
20
1322.888003
10
228.328162
20
1312.526934
10
256.850003
20
1284.194159
10
253.973855
20
1323.693217
10
291.162072
20
1376.335681
10
239.959687
20
1357.742631
10
199.627071
20
1397.503150
0
TEXT
8
LABELS
10
230.938214
20
1340.848655
40
1.000000
1
neregulara_zvaigzne
0
LWPOLYLINE
8
PARTS
90
8
70
1
10
212.481886
20
1427.697959
10
170.959089
20
1402.658702
10
228.572895
20
1392.297633
10
257.094736
20
1363.964858
10
254.218588
20
1403.463916
10
291.406805
20
1456.106380
10
240.204420
20
1437.513330
10
199.871804
20
1477.273849
0
TEXT
8
LABELS
10
231.182947
20
1420.619353
40
1.000000
1
neregulara_zvaigzne
0
LWPOLYLINE
8
PARTS
90
8
70
1
10
214.045524
20
1101.373610
10
172.522727
20
1076.334353
10
230.136533
20
1065.973284
10
258.658374
20
1037.640509
10
255.782226
20
1077.139567
10
292.970443
20
1129.782031
10
241.768058
20
1111.188981
10
201.435442
20
1150.949500
0
TEXT
8
LABELS
10
232.746585
20
1094.295005
40
1.000000
1
neregulara_zvaigzne
0
LWPOLYLINE
8
PARTS
90
8
70
1
10
214.045524
20
861.929479
10
172.522727
20
836.890222
10
230.136533
20
826.529153
10
258.658374
20
798.196378
10
255.782226
20
837.695436
10
292.970443
20
890.337900
10
241.768058
20
871.744850
10
201.435442
20
911.505369
0
TEXT
8
LABELS
10
232.746585
20
854.850874
40
1.000000
1
neregulara_zvaigzne
0
LWPOLYLINE
8
PARTS
90
8
70
1
10
214.045524
20
622.485348
10
172.522727
20
597.446091
10
230.136533
20
587.085022
10
258.658374
20
558.752247
10
255.782226
20
598.251305
10
292.970443
20
650.893769
10
241.768058
20
632.300719
10
201.435442
20
672.061238
0
TEXT
8
LABELS
10
232.746585
20
615.406743
40
1.000000
1
neregulara_zvaigzne
0
LWPOLYLINE
8
PARTS
90
8
70
1
10
214.045524
20
383.041218
10
172.522727
20
358.001961
10
230.136533
20
347.640892
10
258.658374
20
319.308117
10
255.782226
20
358.807175
10
292.970443
20
411.449639
10
241.768058
20
392.856589
10
201.435442
20
432.617108
0
TEXT
8
LABELS
10
232.746585
20
375.962612
40
1.000000
1
neregulara_zvaigzne
0
LWPOLYLINE
8
PARTS
90
8
70
1
10
234.279768
20
1264.148482
10
192.756971
20
1239.109225
10
250.370777
20
1228.748156
10
278.892618
20
1200.415381
10
276.016470
20
1239.914439
10
313.204687
20
1292.556903
10
262.002302
20
1273.963853
10
221.669686
20
1313.724372
0
TEXT
8
LABELS
10
252.980829
20
1257.069876
40
1.000000
1
neregulara_zvaigzne
0
LWPOLYLINE
8
PARTS
90
8
70
1
10
235.451176
20
159.158769
10
193.928379
20
134.119512
10
251.542185
20
123.758443
10
280.064026
20
95.425668
10
277.187878
20
134.924726
10
314.376095
20
187.567190
10
263.173710
20
168.974140
10
222.841094
20
208.734659
0
TEXT
8
LABELS
10
254.152237
20
152.080164
40
1.000000
1
neregulara_zvaigzne
0
LWPOLYLINE
8
PARTS
90
8
70
1
10
266.339203
20
954.902498
10
224.816406
20
929.863241
10
282.430212
20
919.502172
10
310.952053
20
891.169397
10
308.075905
20
930.668455
10
345.264122
20
983.310919
10
294.061737
20
964.717869
10
253.729121
20
1004.478388
0
TEXT
8
LABELS
10
285.040264
20
947.823893
40
1.000000
1
neregulara_zvaigzne
0
LWPOLYLINE
8
PARTS
90
8
70
1
10
266.339203
20
715.458367
10
224.816406
20
690.419110
10
282.430212
20
680.058041
10
310.952053
20
651.725266
10
308.075905
20
691.224324
10
345.264122
20
743.866788
10
294.061737
20
725.273738
10
253.729121
20
765.034257
0
TEXT
8
LABELS
10
285.040264
20
708.379762
40
1.000000
1
neregulara_zvaigzne
0
LWPOLYLINE
8
PARTS
90
8
70
1
10
266.339203
20
476.014237
10
224.816406
20
450.974980
10
282.430212
20
440.613911
10
310.952053
20
412.281136
10
308.075905
20
451.780194
10
345.264122
20
504.422658
10
294.061737
20
485.829608
10
253.729121
20
525.590127
0
TEXT
8
LABELS
10
285.040264
20
468.935631
40
1.000000
1
neregulara_zvaigzne
0
LWPOLYLINE
8
PARTS
90
8
70
1
10
268.392308
20
309.231285
10
226.869511
20
284.192028
10
284.483317
20
273.830959
10
313.005158
20
245.498184
10
310.129010
20
284.997242
10
347.317227
20
337.639706
10
296.114842
20
319.046656
10
255.782226
20
358.807175
0
TEXT
8
LABELS
10
287.093369
20
302.152679
40
1.000000
1
neregulara_zvaigzne
0
LWPOLYLINE
8
PARTS
90
8
70
1
10
272.563233
20
1169.469947
10
231.040436
20
1144.430690
10
288.654242
20
1134.069621
10
317.176083
20
1105.736846
10
314.299935
20
1145.235904
10
351.488152
20
1197.878368
10
300.285767
20
1179.285318
10
259.953151
20
1219.045837
0
TEXT
8
LABELS
10
291.264294
20
1162.391341
40
1.000000
1
neregulara_zvaigzne
0
LWPOLYLINE
8
PARTS
90
8
70
1
10
275.771534
20
1038.009476
10
234.248737
20
1012.970219
10
291.862543
20
1002.609150
10
320.384384
20
974.276375
10
317.508236
20
1013.775433
10
354.696453
20
1066.417897
10
303.494068
20
1047.824847
10
263.161452
20
1087.585366
0
TEXT
8
LABELS
10
294.472595
20
1030.930870
40
1.000000
1
neregulara_zvaigzne
0
LWPOLYLINE
8
PARTS
90
8
70
1
10
275.771534
20
798.565345
10
234.248737
20
773.526088
10
291.862543
20
763.165019
10
320.384384
20
734.832244
10
317.508236
20
774.331302
10
354.696453
20
826.973766
10
303.494068
20
808.380716
10
263.161452
20
848.141235
0
TEXT
8
LABELS
10
294.472595
20
791.486739
40
1.000000
1
neregulara_zvaigzne
0
LWPOLYLINE
8
PARTS
90
8
70
1
10
275.771534
20
559.121214
10
234.248737
20
534.081957
10
291.862543
20
523.720888
10
320.384384
20
495.388113
10
317.508236
20
534.887171
10
354.696453
20
587.529635
10
303.494068
20
568.936585
10
263.161452
20
608.697104
0
TEXT
8
LABELS
10
294.472595
20
552.042609
40
1.000000
1
neregulara_zvaigzne
0
LWPOLYLINE
8
PARTS
90
8
70
1
10
297.227231
20
74.537312
10
255.704434
20
49.498055
10
313.318240
20
39.136986
10
341.840081
20
10.804211
10
338.963933
20
50.303269
10
376.152150
20
102.945733
10
324.949765
20
84.352683
10
284.617149
20
124.113202
0
TEXT
8
LABELS
10
315.928292
20
67.458706
40
1.000000
1
neregulara_zvaigzne
0
LWPOLYLINE
8
PARTS
90
8
70
1
10
297.471964
20
1351.528664
10
255.949167
20
1326.489407
10
313.562973
20
1316.128338
10
342.084814
20
1287.795563
10
339.208666
20
1327.294621
10
376.396883
20
1379.937085
10
325.194498
20
1361.344035
10
284.861882
20
1401.104554
0
TEXT
8
LABELS
10
316.173025
20
1344.450058
40
1.000000
1
neregulara_zvaigzne
0
LWPOLYLINE
8
PARTS
90
8
70
1
10
297.716697
20
1431.299362
10
256.193900
20
1406.260105
10
313.807706
20
1395.899036
10
342.329547
20
1367.566261
10
339.453399
20
1407.065319
10
376.641616
20
1459.707783
10
325.439231
20
1441.114733
10
285.106615
20
1480.875252
0
TEXT
8
LABELS
10
316.417758
20
1424.220757
40
1.000000
1
neregulara_zvaigzne
0
LWPOLYLINE
8
PARTS
90
8
70
1
10
319.514580
20
1267.749885
10
277.991782
20
1242.710628
10
335.605589
20
1232.349559
10
364.127430
20
1204.016784
10
361.251282
20
1243.515842
10
398.439499
20
1296.158306
10
347.237114
20
1277.565256
10
306.904498
20
1317.325775
0
TEXT
8
LABELS
10
338.215641
20
1260.671280
40
1.000000
1
neregulara_zvaigzne
0
LWPOLYLINE
8
PARTS
90
8
70
1
10
320.685987
20
881.092565
10
279.163190
20
856.053308
10
336.776996
20
845.692239
10
365.298837
20
817.359464
10
362.422689
20
856.858522
10
399.610906
20
909.500986
10
348.408521
20
890.907936
10
308.075905
20
930.668455
0
TEXT
8
LABELS
10
339.387048
20
874.013960
40
1.000000
1
neregulara_zvaigzne
0
LWPOLYLINE
8
PARTS
90
8
70
1
10
320.685987
20
641.648434
10
279.163190
20
616.609177
10
336.776996
20
606.248108
10
365.298837
20
577.915333
10
362.422689
20
617.414391
10
399.610906
20
670.056855
10
348.408521
20
651.463805
10
308.075905
20
691.224324
0
TEXT
8
LABELS
10
339.387048
20
634.569829
40
1.000000
1
neregulara_zvaigzne
0
LWPOLYLINE
8
PARTS
90
8
70
1
10
320.685987
20
402.204304
10
279.163190
20
377.165047
10
336.776996
20
366.803978
10
365.298837
20
338.471203
10
362.422689
20
377.970261
10
399.610906
20
430.612725
10
348.408521
20
412.019675
10
308.075905
20
451.780194
0
TEXT
8
LABELS
10
339.387048
20
395.125698
40
1.000000
1
neregulara_zvaigzne
0
LWPOLYLINE
8
PARTS
90
8
70
1
10
320.685987
20
162.760173
10
279.163190
20
137.720916
10
336.776996
20
127.359847
10
365.298837
20
99.027072
10
362.422689
20
138.526130
10
399.610906
20
191.168594
10
348.408521
20
172.575544
10
308.075905
20
212.336063
0
TEXT
8
LABELS
10
339.387048
20
155.681567
40
1.000000
1
neregulara_zvaigzne
0
LWPOLYLINE
8
PARTS
90
8
70
1
10
330.118318
20
245.867150
10
288.595521
20
220.827893
10
346.209327
20
210.466824
10
374.731168
20
182.134049
10
371.855020
20
221.633107
10
409.043237
20
274.275571
10
357.840852
20
255.682521
10
317.508236
20
295.443040
0
TEXT
8
LABELS
10
348.819379
20
238.788545
40
1.000000
1
neregulara_zvaigzne
0
LWPOLYLINE
8
PARTS
90
8
70
1
10
334.289243
20
1106.105812
10
292.766446
20
1081.066555
10
350.380252
20
1070.705486
10
378.902093
20
1042.372711
10
376.025945
20
1081.871769
10
413.214162
20
1134.514233
10
362.011777
20
1115.921183
10
321.679161
20
1155.681702
0
TEXT
8
LABELS
10
352.990304
20
1099.027207
40
1.000000
1
neregulara_zvaigzne
0
LWPOLYLINE
8
PARTS
90
8
70
1
10
359.100783
20
969.158557
10
317.577986
20
944.119300
10
375.191792
20
933.758231
10
403.713633
20
905.425456
10
400.837485
20
944.924514
10
438.025702
20
997.566978
10
386.823317
20
978.973928
10
346.490701
20
1018.734447
0
TEXT
8
LABELS
10
377.801844
20
962.079951
40
1.000000
1
neregulara_zvaigzne
0
LWPOLYLINE
8
PARTS
90
8
70
1
10
359.100783
20
729.714426
10
317.577986
20
704.675169
10
375.191792
20
694.314100
10
403.713633
20
665.981325
10
400.837485
20
705.480383
10
438.025702
20
758.122847
10
386.823317
20
739.529797
10
346.490701
20
779.290316
0
TEXT
8
LABELS
10
377.801844
20
722.635821
40
1.000000
1
neregulara_zvaigzne
0
LWPOLYLINE
8
PARTS
90
8
70
1
10
359.100783
20
490.270295
10
317.577986
20
465.231038
10
375.191792
20
454.869969
10
403.713633
20
426.537194
10
400.837485
20
466.036252
10
438.025702
20
518.678716
10
386.823317
20
500.085666
10
346.490701
20
539.846185
0
TEXT
8
LABELS
10
377.801844
20
483.191690
40
1.000000
1
neregulara_zvaigzne
0
LWPOLYLINE
8
PARTS
90
8
70
1
10
373.861363
20
1193.939952
10
332.338566
20
1168.900695
10
389.952372
20
1158.539626
10
418.474213
20
1130.206851
10
415.598065
20
1169.705909
10
452.786282
20
1222.348373
10
401.583897
20
1203.755323
10
361.251282
20
1243.515842
0
TEXT
8
LABELS
10
392.562424
20
1186.861347
40
1.000000
1
neregulara_zvaigzne
0
LWPOLYLINE
8
PARTS
90
8
70
1
10
375.032771
20
328.394371
10
333.509974
20
303.355114
10
391.123780
20
292.994045
10
419.645621
20
264.661270
10
416.769473
20
304.160328
10
453.957690
20
356.802792
10
402.755305
20
338.209742
10
362.422689
20
377.970261
0
TEXT
8
LABELS
10
393.733832
20
321.315765
40
1.000000
1
neregulara_zvaigzne
0
LWPOLYLINE
8
PARTS
90
8
70
1
10
382.462042
20
78.138715
10
340.939245
20
53.099458
10
398.553051
20
42.738389
10
427.074892
20
14.405614
10
424.198744
20
53.904672
10
461.386961
20
106.547136
10
410.184576
20
87.954086
10
369.851960
20
127.714605
0
TEXT
8
LABELS
10
401.163103
20
71.060110
40
1.000000
1
neregulara_zvaigzne
0
LWPOLYLINE
8
PARTS
90
8
70
1
10
382.538173
20
817.907041
10
341.015376
20
792.867784
10
398.629182
20
782.506715
10
427.151023
20
754.173940
10
424.274875
20
793.672998
10
461.463092
20
846.315462
10
410.260707
20
827.722412
10
369.928091
20
867.482931
0
TEXT
8
LABELS
10
401.239234
20
810.828436
40
1.000000
1
neregulara_zvaigzne
0
LWPOLYLINE
8
PARTS
90
8
70
1
10
382.538173
20
578.462910
10
341.015376
20
553.423653
10
398.629182
20
543.062584
10
427.151023
20
514.729809
10
424.274875
20
554.228867
10
461.463092
20
606.871331
10
410.260707
20
588.278281
10
369.928091
20
628.038800
0
TEXT
8
LABELS
10
401.239234
20
571.384305
40
1.000000
1
neregulara_zvaigzne
0
LWPOLYLINE
8
PARTS
90
8
70
1
10
382.706775
20
1355.130067
10
341.183978
20
1330.090810
10
398.797784
20
1319.729741
10
427.319625
20
1291.396966
10
424.443477
20
1330.896024
10
461.631694
20
1383.538488
10
410.429309
20
1364.945438
10
370.096693
20
1404.705957
0
TEXT
8
LABELS
10
401.407836
20
1348.051462
40
1.000000
1
neregulara_zvaigzne
0
LWPOLYLINE
8
PARTS
90
8
70
1
10
382.951508
20
1434.900766
10
341.428711
20
1409.861509
10
399.042517
20
1399.500440
10
427.564358
20
1371.167665
10
424.688210
20
1410.666723
10
461.876427
20
1463.309187
10
410.674042
20
1444.716137
10
370.341426
20
1484.476656
0
TEXT
8
LABELS
10
401.652569
20
1427.822160
40
1.000000
1
neregulara_zvaigzne
0
LWPOLYLINE
8
PARTS
90
8
70
1
10
402.646075
20
1052.128061
10
361.123278
20
1027.088804
10
418.737084
20
1016.727735
10
447.258925
20
988.394960
10
444.382777
20
1027.894018
10
481.570994
20
1080.536482
10
430.368609
20
1061.943432
10
390.035993
20
1101.703951
0
TEXT
8
LABELS
10
421.347136
20
1045.049455
40
1.000000
1
neregulara_zvaigzne
0
LWPOLYLINE
8
PARTS
90
8
70
1
10
405.920799
20
166.361576
10
364.398002
20
141.322319
10
422.011808
20
130.961250
10
450.533649
20
102.628475
10
447.657501
20
142.127533
10
484.845718
20
194.769997
10
433.643333
20
176.176947
10
393.310717
20
215.937466
0
TEXT
8
LABELS
10
424.621860
20
159.282971
40
1.000000
1
neregulara_zvaigzne
0
LWPOLYLINE
8
PARTS
90
8
70
1
10
413.447567
20
416.460362
10
371.924770
20
391.421105
10
429.538576
20
381.060036
10
458.060417
20
352.727261
10
455.184269
20
392.226319
10
492.372486
20
444.868783
10
441.170101
20
426.275733
10
400.837485
20
466.036252
0
TEXT
8
LABELS
10
432.148628
20
409.381757
40
1.000000
1
neregulara_zvaigzne
0
LWPOLYLINE
8
PARTS
90
8
70
1
10
420.952968
20
905.973033
10
379.430171
20
880.933776
10
437.043977
20
870.572707
10
465.565818
20
842.239932
10
462.689670
20
881.738990
10
499.877887
20
934.381454
10
448.675502
20
915.788404
10
408.342886
20
955.548923
0
TEXT
8
LABELS
10
439.654029
20
898.894427
40
1.000000
1
neregulara_zvaigzne
0
LWPOLYLINE
8
PARTS
90
8
70
1
10
420.952968
20
666.528902
10
379.430171
20
641.489645
10
437.043977
20
631.128576
10
465.565818
20
602.795801
10
462.689670
20
642.294859
10
499.877887
20
694.937323
10
448.675502
20
676.344273
10
408.342886
20
716.104792
0
TEXT
8
LABELS
10
439.654029
20
659.450296
40
1.000000
1
neregulara_zvaigzne
0
LWPOLYLINE
8
PARTS
90
8
70
1
10
429.379555
20
254.584438
10
387.856758
20
229.545181
10
445.470564
20
219.184112
10
473.992405
20
190.851337
10
471.116257
20
230.350395
10
508.304474
20
282.992859
10
457.102089
20
264.399809
10
416.769473
20
304.160328
0
TEXT
8
LABELS
10
448.080616
20
247.505832
40
1.000000
1
neregulara_zvaigzne
0
LWPOLYLINE
8
PARTS
90
8
70
1
10
437.053559
20
1281.320134
10
395.530762
20
1256.280877
10
453.144568
20
1245.919808
10
481.666409
20
1217.587033
10
478.790261
20
1257.086091
10
515.978478
20
1309.728555
10
464.776093
20
1291.135505
10
424.443477
20
1330.896024
0
TEXT
8
LABELS
10
455.754620
20
1274.241529
40
1.000000
1
neregulara_zvaigzne
0
LWPOLYLINE
8
PARTS
90
8
70
1
10
441.837198
20
1139.422872
10
400.314401
20
1114.383615
10
457.928207
20
1104.022546
10
486.450048
20
1075.689771
10
483.573900
20
1115.188829
10
520.762117
20
1167.831293
10
469.559732
20
1149.238243
10
429.227116
20
1188.998762
0
TEXT
8
LABELS
10
460.538259
20
1132.344266
40
1.000000
1
neregulara_zvaigzne
0
LWPOLYLINE
8
PARTS
90
8
70
1
10
451.862362
20
504.526354
10
410.339565
20
479.487097
10
467.953371
20
469.126028
10
496.475212
20
440.793253
10
493.599064
20
480.292311
10
530.787281
20
532.934775
10
479.584896
20
514.341725
10
439.252280
20
554.102244
0
TEXT
8
LABELS
10
470.563423
20
497.447749
40
1.000000
1
neregulara_zvaigzne
0
LWPOLYLINE
8
PARTS
90
8
70
1
10
459.367764
20
754.594894
10
417.844967
20
729.555637
10
475.458773
20
719.194568
10
503.980614
20
690.861793
10
501.104466
20
730.360851
10
538.292683
20
783.003315
10
487.090298
20
764.410265
10
446.757682
20
804.170784
0
TEXT
8
LABELS
10
478.068825
20
747.516288
40
1.000000
1
neregulara_zvaigzne
0
LWPOLYLINE
8
PARTS
90
8
70
1
10
464.498260
20
988.942537
10
422.975463
20
963.903280
10
480.589269
20
953.542211
10
509.111110
20
925.209436
10
506.234962
20
964.708494
10
543.423179
20
1017.350958
10
492.220794
20
998.757908
10
451.888178
20
1038.518427
0
TEXT
8
LABELS
10
483.199321
20
981.863931
40
1.000000
1
neregulara_zvaigzne
0
LWPOLYLINE
8
PARTS
90
8
70
1
10
467.696853
20
81.740118
10
426.174056
20
56.700861
10
483.787862
20
46.339792
10
512.309703
20
18.007017
10
509.433555
20
57.506075
10
546.621772
20
110.148539
10
495.419387
20
91.555489
10
455.086771
20
131.316009
0
TEXT
8
LABELS
10
486.397914
20
74.661513
40
1.000000
1
neregulara_zvaigzne
0
LWPOLYLINE
8
PARTS
90
8
70
1
10
467.794351
20
342.650429
10
426.271554
20
317.611172
10
483.885360
20
307.250103
10
512.407201
20
278.917328
10
509.531053
20
318.416386
10
546.719270
20
371.058850
10
495.516885
20
352.465800
10
455.184269
20
392.226319
0
TEXT
8
LABELS
10
486.495412
20
335.571824
40
1.000000
1
neregulara_zvaigzne
0
LWPOLYLINE
8
PARTS
90
8
70
1
10
468.186320
20
1438.502169
10
426.663523
20
1413.462912
10
484.277329
20
1403.101843
10
512.799170
20
1374.769068
10
509.923022
20
1414.268126
10
547.111239
20
1466.910590
10
495.908854
20
1448.317540
10
455.576238
20
1488.078059
0
TEXT
8
LABELS
10
486.887381
20
1431.423564
40
1.000000
1
neregulara_zvaigzne
0
LWPOLYLINE
8
PARTS
90
8
70
1
10
475.299752
20
592.718969
10
433.776955
20
567.679712
10
491.390761
20
557.318643
10
519.912602
20
528.985868
10
517.036454
20
568.484926
10
554.224671
20
621.127390
10
503.022286
20
602.534340
10
462.689670
20
642.294859
0
TEXT
8
LABELS
10
494.000813
20
585.640364
40
1.000000
1
neregulara_zvaigzne
0
LWPOLYLINE
8
PARTS
90
8
70
1
10
482.805154
20
842.787509
10
441.282357
20
817.748252
10
498.896163
20
807.387183
10
527.418004
20
779.054408
10
524.541856
20
818.553466
10
561.730073
20
871.195930
10
510.527688
20
852.602880
10
470.195072
20
892.363399
0
TEXT
8
LABELS
10
501.506215
20
835.708903
40
1.000000
1
neregulara_zvaigzne
0
LWPOLYLINE
8
PARTS
90
8
70
1
10
490.228935
20
1354.723391
10
448.706138
20
1329.684134
10
506.319944
20
1319.323065
10
534.841785
20
1290.990290
10
531.965637
20
1330.489348
10
569.153854
20
1383.131812
10
517.951469
20
1364.538761
10
477.618853
20
1404.299281
0
TEXT
8
LABELS
10
508.929996
20
1347.644785
40
1.000000
1
neregulara_zvaigzne
0
LWPOLYLINE
8
PARTS
90
8
70
1
10
491.155610
20
169.962980
10
449.632813
20
144.923723
10
507.246619
20
134.562654
10
535.768460
20
106.229879
10
532.892312
20
145.728937
10
570.080529
20
198.371401
10
518.878144
20
179.778351
10
478.545528
20
219.538870
0
TEXT
8
LABELS
10
509.856671
20
162.884374
40
1.000000
1
neregulara_zvaigzne
0
LWPOLYLINE
8
PARTS
90
8
70
1
10
495.096663
20
1212.742596
10
453.573866
20
1187.703339
10
511.187672
20
1177.342270
10
539.709513
20
1149.009495
10
536.833365
20
1188.508553
10
574.021582
20
1241.151017
10
522.819197
20
1222.557967
10
482.486581
20
1262.318486
0
TEXT
8
LABELS
10
513.797724
20
1205.663990
40
1.000000
1
neregulara_zvaigzne
0
LWPOLYLINE
8
PARTS
90
8
70
1
10
503.689383
20
1076.237347
10
462.166586
20
1051.198091
10
519.780392
20
1040.837021
10
548.302233
20
1012.504246
10
545.426085
20
1052.003305
10
582.614302
20
1104.645769
10
531.411917
20
1086.052718
10
491.079301
20
1125.813238
0
TEXT
8
LABELS
10
522.390444
20
1069.158742
40
1.000000
1
neregulara_zvaigzne
0
LWPOLYLINE
8
PARTS
90
8
70
1
10
506.209146
20
430.716421
10
464.686349
20
405.677164
10
522.300155
20
395.316095
10
550.821996
20
366.983320
10
547.945848
20
406.482378
10
585.134065
20
459.124842
10
533.931680
20
440.531792
10
493.599064
20
480.292311
0
TEXT
8
LABELS
10
524.910207
20
423.637816
40
1.000000
1
neregulara_zvaigzne
0
LWPOLYLINE
8
PARTS
90
8
70
1
10
513.714548
20
680.784961
10
472.191751
20
655.745704
10
529.805557
20
645.384635
10
558.327398
20
617.051860
10
555.451250
20
656.550918
10
592.639467
20
709.193382
10
541.437082
20
690.600332
10
501.104466
20
730.360851
0
TEXT
8
LABELS
10
532.415609
20
673.706355
40
1.000000
1
neregulara_zvaigzne
0
LWPOLYLINE
8
PARTS
90
8
70
1
10
522.141135
20
268.840496
10
480.618338
20
243.801239
10
538.232144
20
233.440170
10
566.753985
20
205.107395
10
563.877837
20
244.606453
10
601.066054
20
297.248917
10
549.863669
20
278.655867
10
509.531053
20
318.416386
0
TEXT
8
LABELS
10
540.842196
20
261.761891
40
1.000000
1
neregulara_zvaigzne
0
LWPOLYLINE
8
PARTS
90
8
70
1
10
526.350446
20
925.757013
10
484.827649
20
900.717756
10
542.441455
20
890.356687
10
570.963296
20
862.023912
10
568.087148
20
901.522970
10
605.275365
20
954.165434
10
554.072980
20
935.572384
10
513.740364
20
975.332903
0
TEXT
8
LABELS
10
545.051507
20
918.678407
40
1.000000
1
neregulara_zvaigzne
0
LWPOLYLINE
8
PARTS
90
8
70
1
10
544.623942
20
518.782413
10
503.101145
20
493.743156
10
560.714951
20
483.382087
10
589.236792
20
455.049312
10
586.360644
20
494.548370
10
623.548861
20
547.190834
10
572.346476
20
528.597784
10
532.013860
20
568.358303
0
TEXT
8
LABELS
10
563.325003
20
511.703807
40
1.000000
1
neregulara_zvaigzne
0
LWPOLYLINE
8
PARTS
90
8
70
1
10
548.272040
20
1286.145852
10
506.749243
20
1261.106595
10
564.363048
20
1250.745526
10
592.884889
20
1222.412751
10
590.008742
20
1261.911809
10
627.196959
20
1314.554273
10
575.994574
20
1295.961223
10
535.661957
20
1335.721742
0
TEXT
8
LABELS
10
566.973101
20
1279.067246
40
1.000000
1
neregulara_zvaigzne
0
LWPOLYLINE
8
PARTS
90
8
70
1
10
552.129343
20
768.850952
10
510.606546
20
743.811695
10
568.220352
20
733.450626
10
596.742193
20
705.117851
10
593.866045
20
744.616909
10
631.054262
20
797.259373
10
579.851877
20
778.666323
10
539.519261
20
818.426842
0
TEXT
8
LABELS
10
570.830404
20
761.772347
40
1.000000
1
neregulara_zvaigzne
0
LWPOLYLINE
8
PARTS
90
8
70
1
10
552.931664
20
85.341522
10
511.408867
20
60.302265
10
569.022673
20
49.941196
10
597.544514
20
21.608421
10
594.668366
20
61.107479
10
631.856583
20
113.749943
10
580.654198
20
95.156893
10
540.321582
20
134.917412
0
TEXT
8
LABELS
10
571.632725
20
78.262917
40
1.000000
1
neregulara_zvaigzne
0
LWPOLYLINE
8
PARTS
90
8
70
1
10
553.421131
20
1442.103573
10
511.898334
20
1417.064316
10
569.512140
20
1406.703247
10
598.033981
20
1378.370472
10
595.157833
20
1417.869530
10
632.346050
20
1470.511994
10
581.143665
20
1451.918944
10
540.811049
20
1491.679463
0
TEXT
8
LABELS
10
572.122192
20
1435.024967
40
1.000000
1
neregulara_zvaigzne
0
LWPOLYLINE
8
PARTS
90
8
70
1
10
556.948849
20
1149.557071
10
515.426052
20
1124.517814
10
573.039858
20
1114.156745
10
601.561699
20
1085.823970
10
598.685551
20
1125.323028
10
635.873768
20
1177.965492
10
584.671383
20
1159.372442
10
544.338767
20
1199.132961
0
TEXT
8
LABELS
10
575.649910
20
1142.478466
40
1.000000
1
neregulara_zvaigzne
0
LWPOLYLINE
8
PARTS
90
8
70
1
10
565.541568
20
1013.051823
10
524.018771
20
988.012566
10
581.632577
20
977.651498
10
610.154418
20
949.318722
10
607.278270
20
988.817780
10
644.466487
20
1041.460245
10
593.264102
20
1022.867194
10
552.931486
20
1062.627714
0
TEXT
8
LABELS
10
584.242629
20
1005.973218
40
1.000000
1
neregulara_zvaigzne
0
LWPOLYLINE
8
PARTS
90
8
70
1
10
568.061332
20
606.975028
10
526.538535
20
581.935771
10
584.152341
20
571.574702
10
612.674182
20
543.241927
10
609.798034
20
582.740985
10
646.986251
20
635.383449
10
595.783866
20
616.790399
10
555.451250
20
656.550918
0
TEXT
8
LABELS
10
586.762393
20
599.896422
40
1.000000
1
neregulara_zvaigzne
0
LWPOLYLINE
8
PARTS
90
8
70
1
10
577.895822
20
175.695381
10
536.373025
20
150.656124
10
593.986831
20
140.295055
10
622.508672
20
111.962280
10
619.632524
20
151.461338
10
656.820741
20
204.103802
10
605.618356
20
185.510752
10
565.285740
20
225.271271
0
TEXT
8
LABELS
10
596.596883
20
168.616776
40
1.000000
1
neregulara_zvaigzne
0
LWPOLYLINE
8
PARTS
90
8
70
1
10
580.181490
20
384.687809
10
538.658693
20
359.648552
10
596.272499
20
349.287483
10
624.794340
20
320.954708
10
621.918192
20
360.453766
10
659.106409
20
413.096230
10
607.904024
20
394.503180
10
567.571408
20
434.263699
0
TEXT
8
LABELS
10
598.882551
20
377.609203
40
1.000000
1
neregulara_zvaigzne
0
LWPOLYLINE
8
PARTS
90
8
70
1
10
586.820879
20
860.615523
10
545.298082
20
835.576266
10
602.911888
20
825.215197
10
631.433729
20
796.882422
10
628.557581
20
836.381480
10
665.745798
20
889.023944
10
614.543413
20
870.430894
10
574.210797
20
910.191413
0
TEXT
8
LABELS
10
605.521940
20
853.536918
40
1.000000
1
neregulara_zvaigzne
0
LWPOLYLINE
8
PARTS
90
8
70
1
10
606.476127
20
695.041019
10
564.953330
20
670.001762
10
622.567136
20
659.640693
10
651.088977
20
631.307918
10
648.212829
20
670.806976
10
685.401046
20
723.449440
10
634.198661
20
704.856390
10
593.866045
20
744.616909
0
TEXT
8
LABELS
10
625.177188
20
687.962414
40
1.000000
1
neregulara_zvaigzne
0
LWPOLYLINE
8
PARTS
90
8
70
1
10
607.375946
20
272.441900
10
565.853149
20
247.402643
10
623.466955
20
237.041574
10
651.988796
20
208.708799
10
649.112648
20
248.207857
10
686.300865
20
300.850321
10
635.098480
20
282.257271
10
594.765864
20
322.017790
0
TEXT
8
LABELS
10
626.077007
20
265.363294
40
1.000000
1
neregulara_zvaigzne
0
LWPOLYLINE
8
PARTS
90
8
70
1
10
607.767915
20
1368.293640
10
566.245118
20
1343.254383
10
623.858924
20
1332.893314
10
652.380765
20
1304.560539
10
649.504617
20
1344.059597
10
686.692834
20
1396.702061
10
635.490449
20
1378.109011
10
595.157833
20
1417.869530
0
TEXT
8
LABELS
10
626.468976
20
1361.215034
40
1.000000
1
neregulara_zvaigzne
0
LWPOLYLINE
8
PARTS
90
8
70
1
10
610.124225
20
1222.960328
10
568.601428
20
1197.921071
10
626.215234
20
1187.560002
10
654.737075
20
1159.227227
10
651.860927
20
1198.726285
10
689.049144
20
1251.368749
10
637.846759
20
1232.775699
10
597.514143
20
1272.536218
0
TEXT
8
LABELS
10
628.825286
20
1215.881722
40
1.000000
1
neregulara_zvaigzne
0
LWPOLYLINE
8
PARTS
90
8
70
1
10
618.596285
20
472.753801
10
577.073488
20
447.714544
10
634.687294
20
437.353475
10
663.209135
20
409.020700
10
660.332987
20
448.519758
10
697.521204
20
501.162222
10
646.318819
20
482.569172
10
605.986203
20
522.329691
0
TEXT
8
LABELS
10
637.297346
20
465.675195
40
1.000000
1
neregulara_zvaigzne
0
LWPOLYLINE
8
PARTS
90
8
70
1
10
618.801034
20
1086.371547
10
577.278237
20
1061.332290
10
634.892043
20
1050.971221
10
663.413884
20
1022.638446
10
660.537736
20
1062.137504
10
697.725953
20
1114.779968
10
646.523568
20
1096.186918
10
606.190952
20
1135.947437
0
TEXT
8
LABELS
10
637.502095
20
1079.292942
40
1.000000
1
neregulara_zvaigzne
0
LWPOLYLINE
8
PARTS
90
8
70
1
10
626.012001
20
947.910334
10
584.489204
20
922.871077
10
642.103010
20
912.510008
10
670.624851
20
884.177233
10
667.748703
20
923.676291
10
704.936920
20
976.318755
10
653.734535
20
957.725705
10
613.401919
20
997.486224
0
TEXT
8
LABELS
10
644.713062
20
940.831729
40
1.000000
1
neregulara_zvaigzne
0
LWPOLYLINE
8
PARTS
90
8
70
1
10
638.166475
20
88.942926
10
596.643678
20
63.903669
10
654.257484
20
53.542600
10
682.779325
20
25.209825
10
679.903177
20
64.708883
10
717.091394
20
117.351347
10
665.889009
20
98.758297
10
625.556393
20
138.518816
0
TEXT
8
LABELS
10
656.867536
20
81.864320
40
1.000000
1
neregulara_zvaigzne
0
LWPOLYLINE
8
PARTS
90
8
70
1
10
644.890923
20
783.107011
10
603.368126
20
758.067754
10
660.981932
20
747.706685
10
689.503773
20
719.373910
10
686.627625
20
758.872968
10
723.815842
20
811.515432
10
672.613457
20
792.922382
10
632.280841
20
832.682901
0
TEXT
8
LABELS
10
663.591984
20
776.028406
40
1.000000
1
neregulara_zvaigzne
0
LWPOLYLINE
8
PARTS
90
8
70
1
10
653.544573
20
577.240879
10
612.021776
20
552.201622
10
669.635582
20
541.840553
10
698.157423
20
513.507778
10
695.281275
20
553.006836
10
732.469492
20
605.649300
10
681.267107
20
587.056250
10
640.934491
20
626.816769
0
TEXT
8
LABELS
10
672.245634
20
570.162274
40
1.000000
1
neregulara_zvaigzne
0
LWPOLYLINE
8
PARTS
90
8
70
1
10
652.157840
20
1450.424110
10
610.635043
20
1425.384853
10
668.248849
20
1415.023784
10
696.770690
20
1386.691009
10
693.894542
20
1426.190067
10
731.082759
20
1478.832531
10
679.880374
20
1460.239481
10
639.547758
20
1500.000000
0
TEXT
8
LABELS
10
670.858901
20
1443.345505
40
1.000000
1
neregulara_zvaigzne
0
LWPOLYLINE
8
PARTS
90
8
70
1
10
662.636092
20
343.774205
10
621.113295
20
318.734948
10
678.727101
20
308.373879
10
707.248942
20
280.041105
10
704.372794
20
319.540163
10
741.561011
20
372.182626
10
690.358626
20
353.589577
10
650.026010
20
393.350096
0
TEXT
8
LABELS
10
681.337153
20
336.695600
40
1.000000
1
neregulara_zvaigzne
0
LWPOLYLINE
8
PARTS
90
8
70
1
10
663.130633
20
179.296785
10
621.607836
20
154.257528
10
679.221642
20
143.896459
10
707.743483
20
115.563684
10
704.867335
20
155.062742
10
742.055552
20
207.705206
10
690.853167
20
189.112156
10
650.520551
20
228.872675
0
TEXT
8
LABELS
10
681.831694
20
172.218179
40
1.000000
1
neregulara_zvaigzne
0
LWPOLYLINE
8
PARTS
90
8
70
1
10
663.383691
20
1296.280051
10
621.860894
20
1271.240794
10
679.474700
20
1260.879725
10
707.996541
20
1232.546950
10
705.120393
20
1272.046008
10
742.308610
20
1324.688472
10
691.106225
20
1306.095422
10
650.773609
20
1345.855941
0
TEXT
8
LABELS
10
682.084752
20
1289.201446
40
1.000000
1
neregulara_zvaigzne
0
LWPOLYLINE
8
PARTS
90
8
70
1
10
671.976410
20
1159.774804
10
630.453613
20
1134.735547
10
688.067419
20
1124.374478
10
716.589260
20
1096.041703
10
713.713112
20
1135.540761
10
750.901329
20
1188.183225
10
699.698944
20
1169.590175
10
659.366328
20
1209.350694
0
TEXT
8
LABELS
10
690.677471
20
1152.696198
40
1.000000
1
neregulara_zvaigzne
0
LWPOLYLINE
8
PARTS
90
8
70
1
10
679.271467
20
1021.230058
10
637.748670
20
996.190801
10
695.362476
20
985.829732
10
723.884317
20
957.496957
10
721.008169
20
996.996015
10
758.196386
20
1049.638479
10
706.994001
20
1031.045429
10
666.661385
20
1070.805948
0
TEXT
8
LABELS
10
697.972528
20
1014.151453
40
1.000000
1
neregulara_zvaigzne
0
LWPOLYLINE
8
PARTS
90
8
70
1
10
680.358785
20
874.100401
10
638.835988
20
849.061144
10
696.449794
20
838.700075
10
724.971635
20
810.367300
10
722.095487
20
849.866358
10
759.283704
20
902.508822
10
708.081319
20
883.915772
10
667.748703
20
923.676291
0
TEXT
8
LABELS
10
699.059846
20
867.021796
40
1.000000
1
neregulara_zvaigzne
0
LWPOLYLINE
8
PARTS
90
8
70
1
10
691.959369
20
665.306871
10
650.436572
20
640.267614
10
708.050378
20
629.906545
10
736.572219
20
601.573770
10
733.696071
20
641.072828
10
770.884288
20
693.715292
10
719.681903
20
675.122242
10
679.349287
20
714.882761
0
TEXT
8
LABELS
10
710.660430
20
658.228265
40
1.000000
1
neregulara_zvaigzne
0
LWPOLYLINE
8
PARTS
90
8
70
1
10
701.050888
20
431.840197
10
659.528091
20
406.800940
10
717.141897
20
396.439871
10
745.663738
20
368.107096
10
742.787590
20
407.606154
10
779.975807
20
460.248618
10
728.773422
20
441.655568
10
688.440806
20
481.416087
0
TEXT
8
LABELS
10
719.751949
20
424.761592
40
1.000000
1
neregulara_zvaigzne
0
LWPOLYLINE
8
PARTS
90
8
70
1
10
707.773616
20
1378.410522
10
666.250819
20
1353.371265
10
723.864624
20
1343.010196
10
752.386465
20
1314.677421
10
749.510318
20
1354.176479
10
786.698535
20
1406.818943
10
735.496150
20
1388.225893
10
695.163533
20
1427.986412
0
TEXT
8
LABELS
10
726.474676
20
1371.331916
40
1.000000
1
neregulara_zvaigzne
0
LWPOLYLINE
8
PARTS
90
8
70
1
10
716.982876
20
269.964272
10
675.460079
20
244.925016
10
733.073885
20
234.563946
10
761.595726
20
206.231171
10
758.719578
20
245.730230
10
795.907795
20
298.372693
10
744.705410
20
279.779644
10
704.372794
20
319.540163
0
TEXT
8
LABELS
10
735.683937
20
262.885667
40
1.000000
1
neregulara_zvaigzne
0
LWPOLYLINE
8
PARTS
90
8
70
1
10
723.401287
20
92.544329
10
681.878490
20
67.505072
10
739.492296
20
57.144003
10
768.014137
20
28.811228
10
765.137989
20
68.310286
10
802.326206
20
120.952750
10
751.123821
20
102.359700
10
710.791205
20
142.120219
0
TEXT
8
LABELS
10
742.102348
20
85.465724
40
1.000000
1
neregulara_zvaigzne
0
LWPOLYLINE
8
PARTS
90
8
70
1
10
725.235876
20
1233.094527
10
683.713079
20
1208.055270
10
741.326885
20
1197.694201
10
769.848726
20
1169.361426
10
766.972578
20
1208.860484
10
804.160795
20
1261.502948
10
752.958410
20
1242.909898
10
712.625794
20
1282.670417
0
TEXT
8
LABELS
10
743.936937
20
1226.015922
40
1.000000
1
neregulara_zvaigzne
0
LWPOLYLINE
8
PARTS
90
8
70
1
10
725.675505
20
528.605623
10
684.152708
20
503.566366
10
741.766514
20
493.205297
10
770.288355
20
464.872522
10
767.412207
20
504.371580
10
804.600424
20
557.014044
10
753.398039
20
538.420994
10
713.065423
20
578.181513
0
TEXT
8
LABELS
10
744.376566
20
521.527018
40
1.000000
1
neregulara_zvaigzne
0
LWPOLYLINE
8
PARTS
90
8
70
1
10
730.374164
20
753.372863
10
688.851367
20
728.333606
10
746.465173
20
717.972537
10
774.987014
20
689.639762
10
772.110866
20
729.138820
10
809.299083
20
781.781284
10
758.096698
20
763.188234
10
717.764082
20
802.948753
0
TEXT
8
LABELS
10
749.075225
20
746.294257
40
1.000000
1
neregulara_zvaigzne
0
LWPOLYLINE
8
PARTS
90
8
70
1
10
732.446843
20
1094.633314
10
690.924046
20
1069.594057
10
748.537852
20
1059.232988
10
777.059693
20
1030.900213
10
774.183545
20
1070.399271
10
811.371762
20
1123.041735
10
760.169377
20
1104.448685
10
719.836761
20
1144.209204
0
TEXT
8
LABELS
10
751.147904
20
1087.554709
40
1.000000
1
neregulara_zvaigzne
0
LWPOLYLINE
8
PARTS
90
8
70
1
10
733.618251
20
947.420125
10
692.095454
20
922.380868
10
749.709260
20
912.019799
10
778.231101
20
883.687024
10
775.354953
20
923.186082
10
812.543170
20
975.828546
10
761.340785
20
957.235496
10
721.008169
20
996.996015
0
TEXT
8
LABELS
10
752.319312
20
940.341520
40
1.000000
1
neregulara_zvaigzne
0
LWPOLYLINE
8
PARTS
90
8
70
1
10
748.626534
20
181.871727
10
707.103737
20
156.832470
10
764.717543
20
146.471401
10
793.239384
20
118.138626
10
790.363236
20
157.637684
10
827.551453
20
210.280148
10
776.349068
20
191.687098
10
736.016452
20
231.447617
0
TEXT
8
LABELS
10
767.327595
20
174.793121
40
1.000000
1
neregulara_zvaigzne
0
LWPOLYLINE
8
PARTS
90
8
70
1
10
755.397672
20
358.030264
10
713.874875
20
332.991007
10
771.488681
20
322.629938
10
800.010522
20
294.297163
10
797.134374
20
333.796221
10
834.322591
20
386.438685
10
783.120206
20
367.845635
10
742.787590
20
407.606154
0
TEXT
8
LABELS
10
774.098733
20
350.951659
40
1.000000
1
neregulara_zvaigzne
0
LWPOLYLINE
8
PARTS
90
8
70
1
10
762.347933
20
1450.424110
10
720.825136
20
1425.384853
10
778.438942
20
1415.023784
10
806.960783
20
1386.691009
10
804.084635
20
1426.190067
10
841.272852
20
1478.832531
10
790.070467
20
1460.239481
10
749.737851
20
1500.000000
0
TEXT
8
LABELS
10
781.048994
20
1443.345505
40
1.000000
1
neregulara_zvaigzne
0
LWPOLYLINE
8
PARTS
90
8
70
1
10
764.090300
20
616.671615
10
722.567503
20
591.632358
10
780.181309
20
581.271289
10
808.703150
20
552.938513
10
805.827002
20
592.437571
10
843.015219
20
645.080036
10
791.812834
20
626.486986
10
751.480218
20
666.247504
0
TEXT
8
LABELS
10
782.791361
20
609.593009
40
1.000000
1
neregulara_zvaigzne
0
LWPOLYLINE
8
PARTS
90
8
70
1
10
765.842026
20
844.366253
10
724.319229
20
819.326996
10
781.933035
20
808.965927
10
810.454876
20
780.633152
10
807.578728
20
820.132210
10
844.766945
20
872.774674
10
793.564560
20
854.181624
10
753.231944
20
893.942143
0
TEXT
8
LABELS
10
784.543087
20
837.287647
40
1.000000
1
neregulara_zvaigzne
0
LWPOLYLINE
8
PARTS
90
8
70
1
10
769.625801
20
1315.224998
10
728.103004
20
1290.185741
10
785.716810
20
1279.824672
10
814.238651
20
1251.491897
10
811.362503
20
1290.990955
10
848.550720
20
1343.633419
10
797.348335
20
1325.040369
10
757.015719
20
1364.800888
0
TEXT
8
LABELS
10
788.326862
20
1308.146392
40
1.000000
1
neregulara_zvaigzne
0
LWPOLYLINE
8
PARTS
90
8
70
1
10
785.706309
20
1167.953038
10
744.183512
20
1142.913781
10
801.797318
20
1132.552712
10
830.319159
20
1104.219937
10
827.443011
20
1143.718995
10
864.631228
20
1196.361459
10
813.428843
20
1177.768409
10
773.096227
20
1217.528928
0
TEXT
8
LABELS
10
804.407370
20
1160.874433
40
1.000000
1
neregulara_zvaigzne
0
LWPOLYLINE
8
PARTS
90
8
70
1
10
786.793627
20
1020.823381
10
745.270830
20
995.784124
10
802.884636
20
985.423055
10
831.406477
20
957.090280
10
828.530329
20
996.589338
10
865.718546
20
1049.231802
10
814.516161
20
1030.638752
10
774.183545
20
1070.399271
0
TEXT
8
LABELS
10
805.494688
20
1013.744776
40
1.000000
1
neregulara_zvaigzne
0
LWPOLYLINE
8
PARTS
90
8
70
1
10
793.812467
20
446.096256
10
752.289670
20
421.056999
10
809.903476
20
410.695930
10
838.425317
20
382.363155
10
835.549169
20
421.862213
10
872.737386
20
474.504677
10
821.535001
20
455.911627
10
781.202385
20
495.672146
0
TEXT
8
LABELS
10
812.513528
20
439.017650
40
1.000000
1
neregulara_zvaigzne
0
LWPOLYLINE
8
PARTS
90
8
70
1
10
802.505096
20
704.737606
10
760.982299
20
679.698349
10
818.596105
20
669.337280
10
847.117946
20
641.004505
10
844.241798
20
680.503563
10
881.430015
20
733.146027
10
830.227630
20
714.552977
10
789.895014
20
754.313496
0
TEXT
8
LABELS
10
821.206157
20
697.659001
40
1.000000
1
neregulara_zvaigzne
0
LWPOLYLINE
8
PARTS
90
8
70
1
10
808.437647
20
248.683233
10
766.914850
20
223.643976
10
824.528656
20
213.282907
10
853.050497
20
184.950132
10
850.174349
20
224.449190
10
887.362566
20
277.091654
10
836.160181
20
258.498604
10
795.827565
20
298.259123
0
TEXT
8
LABELS
10
827.138708
20
241.604627
40
1.000000
1
neregulara_zvaigzne
0
LWPOLYLINE
8
PARTS
90
8
70
1
10
808.636098
20
96.145732
10
767.113301
20
71.106475
10
824.727107
20
60.745406
10
853.248948
20
32.412631
10
850.372800
20
71.911689
10
887.561017
20
124.554153
10
836.358632
20
105.961103
10
796.026016
20
145.721622
0
TEXT
8
LABELS
10
827.337159
20
89.067127
40
1.000000
1
neregulara_zvaigzne
0
LWPOLYLINE
8
PARTS
90
8
70
1
10
818.437084
20
542.861682
10
776.914287
20
517.822425
10
834.528093
20
507.461356
10
863.049934
20
479.128581
10
860.173786
20
518.627638
10
897.362003
20
571.270103
10
846.159618
20
552.677053
10
805.827002
20
592.437571
0
TEXT
8
LABELS
10
837.138145
20
535.783076
40
1.000000
1
neregulara_zvaigzne
0
LWPOLYLINE
8
PARTS
90
8
70
1
10
819.101492
20
917.685977
10
777.578695
20
892.646720
10
835.192501
20
882.285651
10
863.714342
20
853.952876
10
860.838194
20
893.451934
10
898.026411
20
946.094398
10
846.824026
20
927.501348
10
806.491410
20
967.261867
0
TEXT
8
LABELS
10
837.802553
20
910.607371
40
1.000000
1
neregulara_zvaigzne
0
LWPOLYLINE
8
PARTS
90
8
70
1
10
824.200118
20
1387.238586
10
782.677321
20
1362.199329
10
840.291127
20
1351.838260
10
868.812968
20
1323.505485
10
865.936820
20
1363.004543
10
903.125037
20
1415.647007
10
851.922652
20
1397.053957
10
811.590036
20
1436.814476
0
TEXT
8
LABELS
10
842.901179
20
1380.159980
40
1.000000
1
neregulara_zvaigzne
0
LWPOLYLINE
8
PARTS
90
8
70
1
10
830.096234
20
1250.083509
10
788.573437
20
1225.044252
10
846.187243
20
1214.683183
10
874.709084
20
1186.350408
10
871.832936
20
1225.849466
10
909.021153
20
1278.491930
10
857.818768
20
1259.898880
10
817.486152
20
1299.659399
0
TEXT
8
LABELS
10
848.797295
20
1243.004903
40
1.000000
1
neregulara_zvaigzne
0
LWPOLYLINE
8
PARTS
90
8
70
1
10
840.053093
20
1094.143105
10
798.530296
20
1069.103848
10
856.144102
20
1058.742779
10
884.665943
20
1030.410004
10
881.789795
20
1069.909062
10
918.978012
20
1122.551526
10
867.775627
20
1103.958476
10
827.443011
20
1143.718995
0
TEXT
8
LABELS
10
858.754154
20
1087.064500
40
1.000000
1
neregulara_zvaigzne
0
LWPOLYLINE
8
PARTS
90
8
70
1
10
840.919891
20
792.803598
10
799.397094
20
767.764341
10
857.010900
20
757.403272
10
885.532741
20
729.070497
10
882.656593
20
768.569555
10
919.844810
20
821.212019
10
868.642425
20
802.618969
10
828.309809
20
842.379488
0
TEXT
8
LABELS
10
859.620952
20
785.724992
40
1.000000
1
neregulara_zvaigzne
0
LWPOLYLINE
8
PARTS
90
8
70
1
10
846.852443
20
336.749225
10
805.329646
20
311.709968
10
862.943452
20
301.348899
10
891.465293
20
273.016124
10
888.589145
20
312.515182
10
925.777362
20
365.157646
10
874.574977
20
346.564596
10
834.242361
20
386.325115
0
TEXT
8
LABELS
10
865.553504
20
329.670619
40
1.000000
1
neregulara_zvaigzne
0
LWPOLYLINE
8
PARTS
90
8
70
1
10
856.851880
20
630.927673
10
815.329083
20
605.888416
10
872.942889
20
595.527347
10
901.464730
20
567.194572
10
898.588582
20
606.693630
10
935.776799
20
659.336094
10
884.574414
20
640.743044
10
844.241798
20
680.503563
0
TEXT
8
LABELS
10
875.552941
20
623.849068
40
1.000000
1
neregulara_zvaigzne
0
LWPOLYLINE
8
PARTS
90
8
70
1
10
862.784431
20
174.873300
10
821.261634
20
149.834043
10
878.875440
20
139.472974
10
907.397281
20
111.140199
10
904.521133
20
150.639257
10
941.709350
20
203.281721
10
890.506965
20
184.688671
10
850.174349
20
224.449190
0
TEXT
8
LABELS
10
881.485492
20
167.794694
40
1.000000
1
neregulara_zvaigzne
0
LWPOLYLINE
8
PARTS
90
8
70
1
10
872.276868
20
991.089233
10
830.754071
20
966.049976
10
888.367877
20
955.688907
10
916.889718
20
927.356132
10
914.013570
20
966.855190
10
951.201787
20
1019.497654
10
899.999402
20
1000.904604
10
859.666786
20
1040.665123
0
TEXT
8
LABELS
10
890.977929
20
984.010627
40
1.000000
1
neregulara_zvaigzne
0
LWPOLYLINE
8
PARTS
90
8
70
1
10
879.047278
20
449.697659
10
837.524481
20
424.658402
10
895.138287
20
414.297333
10
923.660128
20
385.964558
10
920.783980
20
425.463616
10
957.972197
20
478.106080
10
906.769812
20
459.513030
10
866.437196
20
499.273549
0
TEXT
8
LABELS
10
897.748339
20
442.619054
40
1.000000
1
neregulara_zvaigzne
0
LWPOLYLINE
8
PARTS
90
8
70
1
10
884.443018
20
1176.273576
10
842.920221
20
1151.234319
10
900.534027
20
1140.873250
10
929.055868
20
1112.540475
10
926.179720
20
1152.039533
10
963.367937
20
1204.681997
10
912.165552
20
1186.088947
10
871.832936
20
1225.849466
0
TEXT
8
LABELS
10
903.144079
20
1169.194970
40
1.000000
1
neregulara_zvaigzne
0
LWPOLYLINE
8
PARTS
90
8
70
1
10
884.670551
20
1322.097097
10
843.147754
20
1297.057840
10
900.761560
20
1286.696771
10
929.283401
20
1258.363996
10
926.407253
20
1297.863054
10
963.595470
20
1350.505518
10
912.393085
20
1331.912468
10
872.060469
20
1371.672987
0
TEXT
8
LABELS
10
903.371612
20
1315.018491
40
1.000000
1
neregulara_zvaigzne
0
LWPOLYLINE
8
PARTS
90
8
70
1
10
890.499524
20
1450.424110
10
848.976727
20
1425.384853
10
906.590533
20
1415.023784
10
935.112374
20
1386.691009
10
932.236226
20
1426.190067
10
969.424443
20
1478.832531
10
918.222058
20
1460.239481
10
877.889442
20
1500.000000
0
TEXT
8
LABELS
10
909.200585
20
1443.345505
40
1.000000
1
neregulara_zvaigzne
0
LWPOLYLINE
8
PARTS
90
8
70
1
10
891.232423
20
869.050720
10
849.709627
20
844.011463
10
907.323432
20
833.650394
10
935.845273
20
805.317619
10
932.969126
20
844.816677
10
970.157343
20
897.459141
10
918.954957
20
878.866091
10
878.622341
20
918.626610
0
TEXT
8
LABELS
10
909.933485
20
861.972115
40
1.000000
1
neregulara_zvaigzne
0
LWPOLYLINE
8
PARTS
90
8
70
1
10
894.119339
20
66.411584
10
852.596542
20
41.372327
10
910.210348
20
31.011258
10
938.732189
20
2.678483
10
935.856041
20
42.177541
10
973.044258
20
94.820005
10
921.841873
20
76.226955
10
881.509257
20
115.987474
0
TEXT
8
LABELS
10
912.820400
20
59.332978
40
1.000000
1
neregulara_zvaigzne
0
LWPOLYLINE
8
PARTS
90
8
70
1
10
895.266675
20
718.993665
10
853.743878
20
693.954408
10
911.357684
20
683.593339
10
939.879525
20
655.260564
10
937.003377
20
694.759622
10
974.191594
20
747.402086
10
922.989209
20
728.809036
10
882.656593
20
768.569555
0
TEXT
8
LABELS
10
913.967736
20
711.915059
40
1.000000
1
neregulara_zvaigzne
0
LWPOLYLINE
8
PARTS
90
8
70
1
10
901.199227
20
262.939292
10
859.676430
20
237.900035
10
917.290236
20
227.538966
10
945.812077
20
199.206191
10
942.935929
20
238.705249
10
980.124146
20
291.347713
10
928.921761
20
272.754663
10
888.589145
20
312.515182
0
TEXT
8
LABELS
10
919.900288
20
255.860686
40
1.000000
1
neregulara_zvaigzne
0
LWPOLYLINE
8
PARTS
90
8
70
1
10
911.198664
20
557.117740
10
869.675867
20
532.078483
10
927.289673
20
521.717414
10
955.811514
20
493.384639
10
952.935366
20
532.883697
10
990.123583
20
585.526161
10
938.921198
20
566.933111
10
898.588582
20
606.693630
0
TEXT
8
LABELS
10
929.899725
20
550.039135
40
1.000000
1
neregulara_zvaigzne
0
LWPOLYLINE
8
PARTS
90
8
70
1
10
925.536334
20
1064.408956
10
884.013537
20
1039.369700
10
941.627343
20
1029.008630
10
970.149184
20
1000.675855
10
967.273036
20
1040.174914
10
1004.461253
20
1092.817378
10
953.258868
20
1074.224327
10
912.926252
20
1113.984847
0
TEXT
8
LABELS
10
944.237395
20
1057.330351
40
1.000000
1
neregulara_zvaigzne
0
LWPOLYLINE
8
PARTS
90
8
70
1
10
939.017335
20
1248.287164
10
897.494538
20
1223.247907
10
955.108344
20
1212.886838
10
983.630185
20
1184.554063
10
980.754037
20
1224.053121
10
1017.942254
20
1276.695585
10
966.739869
20
1258.102535
10
926.407253
20
1297.863054
0
TEXT
8
LABELS
10
957.718396
20
1241.208558
40
1.000000
1
neregulara_zvaigzne
0
LWPOLYLINE
8
PARTS
90
8
70
1
10
939.614022
20
351.005283
10
898.091225
20
325.966026
10
955.705031
20
315.604957
10
984.226872
20
287.272182
10
981.350724
20
326.771240
10
1018.538941
20
379.413704
10
967.336556
20
360.820654
10
927.003940
20
400.581173
0
TEXT
8
LABELS
10
958.315083
20
343.926678
40
1.000000
1
neregulara_zvaigzne
0
LWPOLYLINE
8
PARTS
90
8
70
1
10
944.407800
20
942.453976
10
902.885003
20
917.414719
10
960.498809
20
907.053651
10
989.020650
20
878.720875
10
986.144502
20
918.219933
10
1023.332719
20
970.862397
10
972.130334
20
952.269347
10
931.797718
20
992.029866
0
TEXT
8
LABELS
10
963.108861
20
935.375371
40
1.000000
1
neregulara_zvaigzne
0
LWPOLYLINE
8
PARTS
90
8
70
1
10
945.579208
20
795.240788
10
904.056411
20
770.201530
10
961.670217
20
759.840462
10
990.192058
20
731.507686
10
987.315910
20
771.006744
10
1024.504126
20
823.649208
10
973.301742
20
805.056159
10
932.969126
20
844.816677
0
TEXT
8
LABELS
10
964.280269
20
788.162182
40
1.000000
1
neregulara_zvaigzne
0
LWPOLYLINE
8
PARTS
90
8
70
1
10
948.267673
20
145.139151
10
906.744876
20
120.099894
10
964.358682
20
109.738825
10
992.880523
20
81.406050
10
990.004375
20
120.905108
10
1027.192592
20
173.547572
10
975.990207
20
154.954522
10
935.657591
20
194.715041
0
TEXT
8
LABELS
10
966.968734
20
138.060546
40
1.000000
1
neregulara_zvaigzne
0
LWPOLYLINE
8
PARTS
90
8
70
1
10
949.613459
20
645.183732
10
908.090662
20
620.144475
10
965.704468
20
609.783406
10
994.226309
20
581.450631
10
991.350161
20
620.949689
10
1028.538378
20
673.592153
10
977.335993
20
654.999103
10
937.003377
20
694.759622
0
TEXT
8
LABELS
10
968.314520
20
638.105126
40
1.000000
1
neregulara_zvaigzne
0
LWPOLYLINE
8
PARTS
90
8
70
1
10
950.969957
20
1385.282621
10
909.447160
20
1360.243364
10
967.060966
20
1349.882295
10
995.582807
20
1321.549520
10
992.706659
20
1361.048578
10
1029.894876
20
1413.691042
10
978.692491
20
1395.097992
10
938.359875
20
1434.858511
0
TEXT
8
LABELS
10
969.671018
20
1378.204015
40
1.000000
1
neregulara_zvaigzne
0
LWPOLYLINE
8
PARTS
90
8
70
1
10
966.118545
20
446.079132
10
924.595748
20
421.039875
10
982.209554
20
410.678806
10
1010.731395
20
382.346031
10
1007.855247
20
421.845089
10
1045.043464
20
474.487553
10
993.841079
20
455.894503
10
953.508463
20
495.655022
0
TEXT
8
LABELS
10
984.819606
20
439.000527
40
1.000000
1
neregulara_zvaigzne
0
LWPOLYLINE
8
PARTS
90
8
70
1
10
969.926259
20
1146.539427
10
928.403462
20
1121.500170
10
986.017268
20
1111.139101
10
1014.539109
20
1082.806326
10
1011.662961
20
1122.305384
10
1048.851178
20
1174.947848
10
997.648793
20
1156.354798
10
957.316177
20
1196.115317
0
TEXT
8
LABELS
10
988.627320
20
1139.460821
40
1.000000
1
neregulara_zvaigzne
0
LWPOLYLINE
8
PARTS
90
8
70
1
10
986.682468
20
233.205143
10
945.159671
20
208.165886
10
1002.773477
20
197.804817
10
1031.295318
20
169.472042
10
1028.419170
20
208.971100
10
1065.607387
20
261.613564
10
1014.405002
20
243.020514
10
974.072386
20
282.781033
0
TEXT
8
LABELS
10
1005.383529
20
226.126537
40
1.000000
1
neregulara_zvaigzne
0
LWPOLYLINE
8
PARTS
90
8
70
1
10
997.667265
20
1015.773700
10
956.144469
20
990.734443
10
1013.758274
20
980.373374
10
1042.280115
20
952.040599
10
1039.403967
20
991.539657
10
1076.592185
20
1044.182121
10
1025.389799
20
1025.589071
10
985.057183
20
1065.349590
0
TEXT
8
LABELS
10
1016.368326
20
1008.695095
40
1.000000
1
neregulara_zvaigzne
0
LWPOLYLINE
8
PARTS
90
8
70
1
10
998.754584
20
868.644044
10
957.231787
20
843.604787
10
1014.845593
20
833.243718
10
1043.367434
20
804.910943
10
1040.491286
20
844.410001
10
1077.679503
20
897.052465
10
1026.477118
20
878.459415
10
986.144502
20
918.219934
0
TEXT
8
LABELS
10
1017.455645
20
861.565438
40
1.000000
1
neregulara_zvaigzne
0
LWPOLYLINE
8
PARTS
90
8
70
1
10
999.925992
20
721.430855
10
958.403195
20
696.391597
10
1016.017000
20
686.030529
10
1044.538841
20
657.697753
10
1041.662693
20
697.196811
10
1078.850911
20
749.839275
10
1027.648526
20
731.246226
10
987.315909
20
771.006744
0
TEXT
8
LABELS
10
1018.627052
20
714.352249
40
1.000000
1
neregulara_zvaigzne
0
LWPOLYLINE
8
PARTS
90
8
70
1
10
1002.614457
20
71.329218
10
961.091660
20
46.289961
10
1018.705466
20
35.928892
10
1047.227307
20
7.596117
10
1044.351159
20
47.095175
10
1081.539376
20
99.737639
10
1030.336991
20
81.144589
10
990.004375
20
120.905108
0
TEXT
8
LABELS
10
1021.315518
20
64.250613
40
1.000000
1
neregulara_zvaigzne
0
LWPOLYLINE
8
PARTS
90
8
70
1
10
1003.960243
20
571.373799
10
962.437446
20
546.334542
10
1020.051252
20
535.973473
10
1048.573093
20
507.640698
10
1045.696945
20
547.139756
10
1082.885162
20
599.782220
10
1031.682777
20
581.189170
10
991.350161
20
620.949689
0
TEXT
8
LABELS
10
1022.661304
20
564.295193
40
1.000000
1
neregulara_zvaigzne
0
LWPOLYLINE
8
PARTS
90
8
70
1
10
1005.316741
20
1311.472688
10
963.793944
20
1286.433431
10
1021.407750
20
1276.072362
10
1049.929591
20
1247.739587
10
1047.053443
20
1287.238645
10
1084.241660
20
1339.881109
10
1033.039275
20
1321.288059
10
992.706659
20
1361.048578
0
TEXT
8
LABELS
10
1024.017802
20
1304.394082
40
1.000000
1
neregulara_zvaigzne
0
LWPOLYLINE
8
PARTS
90
8
70
1
10
1012.462231
20
1450.424110
10
970.939434
20
1425.384853
10
1028.553240
20
1415.023784
10
1057.075081
20
1386.691009
10
1054.198933
20
1426.190067
10
1091.387150
20
1478.832531
10
1040.184765
20
1460.239481
10
999.852149
20
1500.000000
0
TEXT
8
LABELS
10
1031.163292
20
1443.345505
40
1.000000
1
neregulara_zvaigzne
0
LWPOLYLINE
8
PARTS
90
8
70
1
10
1024.500577
20
1218.553015
10
982.977780
20
1193.513758
10
1040.591586
20
1183.152689
10
1069.113427
20
1154.819914
10
1066.237279
20
1194.318972
10
1103.425496
20
1246.961436
10
1052.223111
20
1228.368386
10
1011.890495
20
1268.128905
0
TEXT
8
LABELS
10
1043.201638
20
1211.474410
40
1.000000
1
neregulara_zvaigzne
0
LWPOLYLINE
8
PARTS
90
8
70
1
10
1024.848834
20
354.606687
10
983.326037
20
329.567430
10
1040.939843
20
319.206361
10
1069.461684
20
290.873586
10
1066.585536
20
330.372644
10
1103.773753
20
383.015108
10
1052.571368
20
364.422058
10
1012.238752
20
404.182577
0
TEXT
8
LABELS
10
1043.549895
20
347.528081
40
1.000000
1
neregulara_zvaigzne
0
LWPOLYLINE
8
PARTS
90
8
70
1
10
1041.029252
20
159.395210
10
999.506455
20
134.355953
10
1057.120261
20
123.994884
10
1085.642102
20
95.662109
10
1082.765954
20
135.161167
10
1119.954171
20
187.803631
10
1068.751786
20
169.210581
10
1028.419170
20
208.971100
0
TEXT
8
LABELS
10
1059.730313
20
152.316604
40
1.000000
1
neregulara_zvaigzne
0
LWPOLYLINE
8
PARTS
90
8
70
1
10
1042.057190
20
1097.904171
10
1000.534393
20
1072.864914
10
1058.148199
20
1062.503845
10
1086.670040
20
1034.171070
10
1083.793892
20
1073.670128
10
1120.982109
20
1126.312592
10
1069.779724
20
1107.719542
10
1029.447108
20
1147.480061
0
TEXT
8
LABELS
10
1060.758251
20
1090.825565
40
1.000000
1
neregulara_zvaigzne
0
LWPOLYLINE
8
PARTS
90
8
70
1
10
1051.353356
20
449.680536
10
1009.830559
20
424.641279
10
1067.444365
20
414.280210
10
1095.966206
20
385.947435
10
1093.090058
20
425.446493
10
1130.278275
20
478.088957
10
1079.075890
20
459.495907
10
1038.743274
20
499.256426
0
TEXT
8
LABELS
10
1070.054417
20
442.601930
40
1.000000
1
neregulara_zvaigzne
0
LWPOLYLINE
8
PARTS
90
8
70
1
10
1052.014050
20
941.963767
10
1010.491253
20
916.924510
10
1068.105059
20
906.563441
10
1096.626900
20
878.230666
10
1093.750752
20
917.729724
10
1130.938969
20
970.372188
10
1079.736584
20
951.779138
10
1039.403968
20
991.539657
0
TEXT
8
LABELS
10
1070.715111
20
934.885162
40
1.000000
1
neregulara_zvaigzne
0
LWPOLYLINE
8
PARTS
90
8
70
1
10
1053.101368
20
794.834111
10
1011.578571
20
769.794854
10
1069.192377
20
759.433785
10
1097.714218
20
731.101010
10
1094.838070
20
770.600068
10
1132.026287
20
823.242532
10
1080.823902
20
804.649482
10
1040.491286
20
844.410001
0
TEXT
8
LABELS
10
1071.802429
20
787.755505
40
1.000000
1
neregulara_zvaigzne
0
LWPOLYLINE
8
PARTS
90
8
70
1
10
1054.272776
20
647.620922
10
1012.749979
20
622.581664
10
1070.363785
20
612.220596
10
1098.885626
20
583.887820
10
1096.009478
20
623.386878
10
1133.197695
20
676.029342
10
1081.995310
20
657.436293
10
1041.662694
20
697.196811
0
TEXT
8
LABELS
10
1072.973837
20
640.542316
40
1.000000
1
neregulara_zvaigzne
0
LWPOLYLINE
8
PARTS
90
8
70
1
10
1066.809015
20
1376.614177
10
1025.286218
20
1351.574920
10
1082.900024
20
1341.213851
10
1111.421865
20
1312.881076
10
1108.545717
20
1352.380134
10
1145.733934
20
1405.022598
10
1094.531549
20
1386.429548
10
1054.198933
20
1426.190067
0
TEXT
8
LABELS
10
1085.510076
20
1369.535572
40
1.000000
1
neregulara_zvaigzne
0
LWPOLYLINE
8
PARTS
90
8
70
1
10
1081.419360
20
250.257391
10
1039.896563
20
225.218134
10
1097.510369
20
214.857065
10
1126.032210
20
186.524290
10
1123.156062
20
226.023348
10
1160.344279
20
278.665812
10
1109.141894
20
260.072762
10
1068.809278
20
299.833281
0
TEXT
8
LABELS
10
1100.120421
20
243.178786
40
1.000000
1
neregulara_zvaigzne
0
LWPOLYLINE
8
PARTS
90
8
70
1
10
1089.443484
20
541.639650
10
1047.920687
20
516.600393
10
1105.534493
20
506.239324
10
1134.056334
20
477.906549
10
1131.180186
20
517.405607
10
1168.368403
20
570.048071
10
1117.166018
20
551.455021
10
1076.833402
20
591.215540
0
TEXT
8
LABELS
10
1108.144545
20
534.561044
40
1.000000
1
neregulara_zvaigzne
0
LWPOLYLINE
8
PARTS
90
8
70
1
10
1090.799982
20
1281.738539
10
1049.277185
20
1256.699282
10
1106.890991
20
1246.338213
10
1135.412832
20
1218.005438
10
1132.536684
20
1257.504496
10
1169.724901
20
1310.146960
10
1118.522516
20
1291.553910
10
1078.189901
20
1331.314429
0
TEXT
8
LABELS
10
1109.501043
20
1274.659934
40
1.000000
1
neregulara_zvaigzne
0
LWPOLYLINE
8
PARTS
90
8
70
1
10
1095.376036
20
85.585277
10
1053.853239
20
60.546020
10
1111.467045
20
50.184951
10
1139.988886
20
21.852176
10
1137.112738
20
61.351234
10
1174.300955
20
113.993698
10
1123.098570
20
95.400648
10
1082.765954
20
135.161167
0
TEXT
8
LABELS
10
1114.077097
20
78.506671
40
1.000000
1
neregulara_zvaigzne
0
LWPOLYLINE
8
PARTS
90
8
70
1
10
1096.403974
20
1024.094238
10
1054.881177
20
999.054981
10
1112.494983
20
988.693912
10
1141.016824
20
960.361137
10
1138.140676
20
999.860195
10
1175.328893
20
1052.502659
10
1124.126508
20
1033.909609
10
1083.793892
20
1073.670128
0
TEXT
8
LABELS
10
1115.105035
20
1017.015632
40
1.000000
1
neregulara_zvaigzne
0
LWPOLYLINE
8
PARTS
90
8
70
1
10
1096.631508
20
1169.917759
10
1055.108711
20
1144.878502
10
1112.722517
20
1134.517433
10
1141.244358
20
1106.184658
10
1138.368210
20
1145.683716
10
1175.556427
20
1198.326180
10
1124.354042
20
1179.733130
10
1084.021426
20
1219.493649
0
TEXT
8
LABELS
10
1115.332569
20
1162.839153
40
1.000000
1
neregulara_zvaigzne
0
LWPOLYLINE
8
PARTS
90
8
70
1
10
1106.360834
20
868.153834
10
1064.838037
20
843.114577
10
1122.451843
20
832.753508
10
1150.973684
20
804.420733
10
1148.097536
20
843.919791
10
1185.285753
20
896.562255
10
1134.083368
20
877.969205
10
1093.750752
20
917.729724
0
TEXT
8
LABELS
10
1125.061895
20
861.075229
40
1.000000
1
neregulara_zvaigzne
0
LWPOLYLINE
8
PARTS
90
8
70
1
10
1107.448152
20
721.024178
10
1065.925355
20
695.984921
10
1123.539161
20
685.623852
10
1152.061002
20
657.291077
10
1149.184854
20
696.790135
10
1186.373071
20
749.432599
10
1135.170686
20
730.839549
10
1094.838070
20
770.600068
0
TEXT
8
LABELS
10
1126.149213
20
713.945572
40
1.000000
1
neregulara_zvaigzne
0
LWPOLYLINE
8
PARTS
90
8
70
1
10
1110.083645
20
358.208090
10
1068.560848
20
333.168833
10
1126.174654
20
322.807764
10
1154.696495
20
294.474989
10
1151.820347
20
333.974047
10
1189.008564
20
386.616511
10
1137.806179
20
368.023461
10
1097.473563
20
407.783980
0
TEXT
8
LABELS
10
1128.784706
20
351.129485
40
1.000000
1
neregulara_zvaigzne
0
LWPOLYLINE
8
PARTS
90
8
70
1
10
1119.575001
20
1450.424110
10
1078.052204
20
1425.384853
10
1135.666010
20
1415.023784
10
1164.187851
20
1386.691009
10
1161.311703
20
1426.190067
10
1198.499920
20
1478.832531
10
1147.297535
20
1460.239481
10
1106.964919
20
1500.000000
0
TEXT
8
LABELS
10
1138.276062
20
1443.345505
40
1.000000
1
neregulara_zvaigzne
0
LWPOLYLINE
8
PARTS
90
8
70
1
10
1135.766144
20
176.447458
10
1094.243347
20
151.408201
10
1151.857153
20
141.047132
10
1180.378994
20
112.714357
10
1177.502846
20
152.213415
10
1214.691063
20
204.855879
10
1163.488678
20
186.262829
10
1123.156062
20
226.023348
0
TEXT
8
LABELS
10
1154.467205
20
169.368853
40
1.000000
1
neregulara_zvaigzne
0
LWPOLYLINE
8
PARTS
90
8
70
1
10
1139.756017
20
617.886773
10
1098.233220
20
592.847516
10
1155.847026
20
582.486447
10
1184.368867
20
554.153672
10
1181.492719
20
593.652730
10
1218.680936
20
646.295194
10
1167.478551
20
627.702144
10
1127.145935
20
667.462663
0
TEXT
8
LABELS
10
1158.457078
20
610.808167
40
1.000000
1
neregulara_zvaigzne
0
LWPOLYLINE
8
PARTS
90
8
70
1
10
1144.077597
20
463.883739
10
1102.554800
20
438.844482
10
1160.168606
20
428.483413
10
1188.690447
20
400.150638
10
1185.814299
20
439.649696
10
1223.002516
20
492.292160
10
1171.800131
20
473.699110
10
1131.467515
20
513.459629
0
TEXT
8
LABELS
10
1162.778658
20
456.805134
40
1.000000
1
neregulara_zvaigzne
0
LWPOLYLINE
8
PARTS
90
8
70
1
10
1150.750758
20
950.284305
10
1109.227961
20
925.245048
10
1166.841767
20
914.883979
10
1195.363608
20
886.551204
10
1192.487460
20
926.050262
10
1229.675677
20
978.692726
10
1178.473292
20
960.099676
10
1138.140676
20
999.860195
0
TEXT
8
LABELS
10
1169.451819
20
943.205699
40
1.000000
1
neregulara_zvaigzne
0
LWPOLYLINE
8
PARTS
90
8
70
1
10
1150.978292
20
1096.107826
10
1109.455495
20
1071.068569
10
1167.069301
20
1060.707500
10
1195.591142
20
1032.374725
10
1192.714994
20
1071.873783
10
1229.903211
20
1124.516247
10
1178.700826
20
1105.923197
10
1138.368210
20
1145.683716
0
TEXT
8
LABELS
10
1169.679353
20
1089.029220
40
1.000000
1
neregulara_zvaigzne
0
LWPOLYLINE
8
PARTS
90
8
70
1
10
1152.292256
20
1346.880028
10
1110.769459
20
1321.840771
10
1168.383265
20
1311.479702
10
1196.905106
20
1283.146927
10
1194.028958
20
1322.645985
10
1231.217175
20
1375.288449
10
1180.014790
20
1356.695399
10
1139.682174
20
1396.455918
0
TEXT
8
LABELS
10
1170.993317
20
1339.801423
40
1.000000
1
neregulara_zvaigzne
0
LWPOLYLINE
8
PARTS
90
8
70
1
10
1160.707618
20
794.343901
10
1119.184821
20
769.304644
10
1176.798627
20
758.943575
10
1205.320468
20
730.610800
10
1202.444320
20
770.109858
10
1239.632537
20
822.752322
10
1188.430152
20
804.159272
10
1148.097536
20
843.919791
0
TEXT
8
LABELS
10
1179.408679
20
787.265296
40
1.000000
1
neregulara_zvaigzne
0
LWPOLYLINE
8
PARTS
90
8
70
1
10
1162.930914
20
1233.103283
10
1121.408117
20
1208.064026
10
1179.021923
20
1197.702957
10
1207.543764
20
1169.370182
10
1204.667616
20
1208.869240
10
1241.855833
20
1261.511704
10
1190.653448
20
1242.918654
10
1150.320832
20
1282.679173
0
TEXT
8
LABELS
10
1181.631975
20
1226.024677
40
1.000000
1
neregulara_zvaigzne
0
LWPOLYLINE
8
PARTS
90
8
70
1
10
1174.180939
20
264.513450
10
1132.658142
20
239.474193
10
1190.271948
20
229.113124
10
1218.793789
20
200.780349
10
1215.917641
20
240.279407
10
1253.105858
20
292.921871
10
1201.903473
20
274.328821
10
1161.570857
20
314.089340
0
TEXT
8
LABELS
10
1192.882000
20
257.434844
40
1.000000
1
neregulara_zvaigzne
0
LWPOLYLINE
8
PARTS
90
8
70
1
10
1185.311217
20
70.707420
10
1143.788420
20
45.668163
10
1201.402226
20
35.307094
10
1229.924067
20
6.974319
10
1227.047919
20
46.473377
10
1264.236136
20
99.115841
10
1213.033751
20
80.522791
10
1172.701135
20
120.283310
0
TEXT
8
LABELS
10
1204.012278
20
63.628814
40
1.000000
1
neregulara_zvaigzne
0
LWPOLYLINE
8
PARTS
90
8
70
1
10
1192.931393
20
691.290029
10
1151.408596
20
666.250772
10
1209.022402
20
655.889703
10
1237.544243
20
627.556928
10
1234.668095
20
667.055986
10
1271.856312
20
719.698450
10
1220.653927
20
701.105400
10
1180.321311
20
740.865919
0
TEXT
8
LABELS
10
1211.632454
20
684.211423
40
1.000000
1
neregulara_zvaigzne
0
LWPOLYLINE
8
PARTS
90
8
70
1
10
1194.102801
20
544.076840
10
1152.580004
20
519.037583
10
1210.193810
20
508.676514
10
1238.715651
20
480.343739
10
1235.839503
20
519.842797
10
1273.027720
20
572.485261
10
1221.825335
20
553.892211
10
1181.492719
20
593.652730
0
TEXT
8
LABELS
10
1212.803862
20
536.998234
40
1.000000
1
neregulara_zvaigzne
0
LWPOLYLINE
8
PARTS
90
8
70
1
10
1197.130469
20
354.685658
10
1155.607672
20
329.646401
10
1213.221478
20
319.285332
10
1241.743319
20
290.952557
10
1238.867171
20
330.451615
10
1276.055388
20
383.094079
10
1224.853003
20
364.501029
10
1184.520387
20
404.261548
0
TEXT
8
LABELS
10
1215.831530
20
347.607053
40
1.000000
1
neregulara_zvaigzne
0
LWPOLYLINE
8
PARTS
90
8
70
1
10
1205.058242
20
1420.689961
10
1163.535445
20
1395.650704
10
1221.149251
20
1385.289635
10
1249.671092
20
1356.956860
10
1246.794944
20
1396.455918
10
1283.983161
20
1449.098382
10
1232.780776
20
1430.505332
10
1192.448160
20
1470.265851
0
TEXT
8
LABELS
10
1223.759303
20
1413.611356
40
1.000000
1
neregulara_zvaigzne
0
LWPOLYLINE
8
PARTS
90
8
70
1
10
1205.097542
20
876.474372
10
1163.574745
20
851.435115
10
1221.188551
20
841.074046
10
1249.710392
20
812.741271
10
1246.834244
20
852.240329
10
1284.022461
20
904.882793
10
1232.820076
20
886.289743
10
1192.487460
20
926.050262
0
TEXT
8
LABELS
10
1223.798603
20
869.395766
40
1.000000
1
neregulara_zvaigzne
0
LWPOLYLINE
8
PARTS
90
8
70
1
10
1205.325076
20
1022.297893
10
1163.802279
20
997.258636
10
1221.416085
20
986.897567
10
1249.937926
20
958.564792
10
1247.061778
20
998.063850
10
1284.249995
20
1050.706314
10
1233.047610
20
1032.113264
10
1192.714994
20
1071.873783
0
TEXT
8
LABELS
10
1224.026137
20
1015.219287
40
1.000000
1
neregulara_zvaigzne
0
LWPOLYLINE
8
PARTS
90
8
70
1
10
1217.277698
20
1159.293350
10
1175.754901
20
1134.254093
10
1233.368707
20
1123.893024
10
1261.890548
20
1095.560249
10
1259.014400
20
1135.059307
10
1296.202617
20
1187.701771
10
1245.000232
20
1169.108721
10
1204.667616
20
1208.869240
0
TEXT
8
LABELS
10
1235.978759
20
1152.214744
40
1.000000
1
neregulara_zvaigzne
0
LWPOLYLINE
8
PARTS
90
8
70
1
10
1224.423188
20
1298.244772
10
1182.900391
20
1273.205515
10
1240.514197
20
1262.844446
10
1269.036038
20
1234.511671
10
1266.159890
20
1274.010729
10
1303.348107
20
1326.653193
10
1252.145722
20
1308.060143
10
1211.813106
20
1347.820662
0
TEXT
8
LABELS
10
1243.124249
20
1291.166167
40
1.000000
1
neregulara_zvaigzne
0
LWPOLYLINE
8
PARTS
90
8
70
1
10
1227.277063
20
155.245900
10
1185.754266
20
130.206643
10
1243.368072
20
119.845574
10
1271.889913
20
91.512799
10
1269.013765
20
131.011857
10
1306.201982
20
183.654321
10
1254.999597
20
165.061271
10
1214.666981
20
204.821790
0
TEXT
8
LABELS
10
1245.978124
20
148.167294
40
1.000000
1
neregulara_zvaigzne
0
LWPOLYLINE
8
PARTS
90
8
70
1
10
1234.410198
20
447.443446
10
1192.887401
20
422.404189
10
1250.501207
20
412.043120
10
1279.023048
20
383.710345
10
1276.146900
20
423.209403
10
1313.335117
20
475.851867
10
1262.132732
20
457.258817
10
1221.800116
20
497.019336
0
TEXT
8
LABELS
10
1253.111259
20
440.364841
40
1.000000
1
neregulara_zvaigzne
0
LWPOLYLINE
8
PARTS
90
8
70
1
10
1246.190859
20
764.609753
10
1204.668062
20
739.570496
10
1262.281868
20
729.209427
10
1290.803709
20
700.876652
10
1287.927561
20
740.375710
10
1325.115778
20
793.018174
10
1273.913393
20
774.425124
10
1233.580777
20
814.185643
0
TEXT
8
LABELS
10
1264.891920
20
757.531147
40
1.000000
1
neregulara_zvaigzne
0
LWPOLYLINE
8
PARTS
90
8
70
1
10
1247.278177
20
617.480096
10
1205.755380
20
592.440839
10
1263.369186
20
582.079770
10
1291.891027
20
553.746995
10
1289.014879
20
593.246053
10
1326.203096
20
645.888517
10
1275.000711
20
627.295467
10
1234.668095
20
667.055986
0
TEXT
8
LABELS
10
1265.979238
20
610.401490
40
1.000000
1
neregulara_zvaigzne
0
LWPOLYLINE
8
PARTS
90
8
70
1
10
1259.415751
20
268.114853
10
1217.892954
20
243.075596
10
1275.506760
20
232.714527
10
1304.028601
20
204.381752
10
1301.152453
20
243.880810
10
1338.340670
20
296.523274
10
1287.138285
20
277.930224
10
1246.805669
20
317.690743
0
TEXT
8
LABELS
10
1278.116812
20
261.036248
40
1.000000
1
neregulara_zvaigzne
0
LWPOLYLINE
8
PARTS
90
8
70
1
10
1259.671860
20
948.487960
10
1218.149063
20
923.448703
10
1275.762869
20
913.087634
10
1304.284710
20
884.754859
10
1301.408562
20
924.253917
10
1338.596779
20
976.896381
10
1287.394394
20
958.303331
10
1247.061778
20
998.063850
0
TEXT
8
LABELS
10
1278.372921
20
941.409354
40
1.000000
1
neregulara_zvaigzne
0
LWPOLYLINE
8
PARTS
90
8
70
1
10
1271.624482
20
1085.483417
10
1230.101685
20
1060.444160
10
1287.715491
20
1050.083091
10
1316.237332
20
1021.750316
10
1313.361184
20
1061.249374
10
1350.549401
20
1113.891838
10
1299.347016
20
1095.298788
10
1259.014400
20
1135.059307
0
TEXT
8
LABELS
10
1290.325543
20
1078.404811
40
1.000000
1
neregulara_zvaigzne
0
LWPOLYLINE
8
PARTS
90
8
70
1
10
1277.189173
20
1372.054705
10
1235.666376
20
1347.015448
10
1293.280182
20
1336.654379
10
1321.802023
20
1308.321604
10
1318.925875
20
1347.820662
10
1356.114092
20
1400.463126
10
1304.911707
20
1381.870076
10
1264.579091
20
1421.630595
0
TEXT
8
LABELS
10
1295.890234
20
1364.976100
40
1.000000
1
neregulara_zvaigzne
0
LWPOLYLINE
8
PARTS
90
8
70
1
10
1278.769972
20
1224.434839
10
1237.247175
20
1199.395582
10
1294.860981
20
1189.034513
10
1323.382822
20
1160.701738
10
1320.506674
20
1200.200796
10
1357.694891
20
1252.843260
10
1306.492506
20
1234.250210
10
1266.159890
20
1274.010729
0
TEXT
8
LABELS
10
1297.471033
20
1217.356234
40
1.000000
1
neregulara_zvaigzne
0
LWPOLYLINE
8
PARTS
90
8
70
1
10
1281.623847
20
81.435967
10
1240.101050
20
56.396710
10
1297.714856
20
46.035641
10
1326.236697
20
17.702866
10
1323.360549
20
57.201924
10
1360.548766
20
109.844388
10
1309.346381
20
91.251338
10
1269.013765
20
131.011857
0
TEXT
8
LABELS
10
1300.324908
20
74.357361
40
1.000000
1
neregulara_zvaigzne
0
LWPOLYLINE
8
PARTS
90
8
70
1
10
1287.585576
20
520.846700
10
1246.062779
20
495.807443
10
1303.676585
20
485.446374
10
1332.198426
20
457.113599
10
1329.322278
20
496.612657
10
1366.510495
20
549.255121
10
1315.308110
20
530.662071
10
1274.975494
20
570.422590
0
TEXT
8
LABELS
10
1306.286637
20
513.768094
40
1.000000
1
neregulara_zvaigzne
0
LWPOLYLINE
8
PARTS
90
8
70
1
10
1289.172759
20
367.923513
10
1247.649962
20
342.884256
10
1305.263768
20
332.523187
10
1333.785609
20
304.190412
10
1330.909461
20
343.689470
10
1368.097678
20
396.331934
10
1316.895293
20
377.738884
10
1276.562677
20
417.499403
0
TEXT
8
LABELS
10
1307.873820
20
360.844908
40
1.000000
1
neregulara_zvaigzne
0
LWPOLYLINE
8
PARTS
90
8
70
1
10
1290.580784
20
846.740223
10
1249.057987
20
821.700966
10
1306.671793
20
811.339897
10
1335.193634
20
783.007122
10
1332.317486
20
822.506180
10
1369.505703
20
875.148644
10
1318.303318
20
856.555594
10
1277.970702
20
896.316113
0
TEXT
8
LABELS
10
1309.281845
20
839.661618
40
1.000000
1
neregulara_zvaigzne
0
LWPOLYLINE
8
PARTS
90
8
70
1
10
1300.537643
20
690.799820
10
1259.014846
20
665.760563
10
1316.628652
20
655.399494
10
1345.150493
20
627.066719
10
1342.274345
20
666.565777
10
1379.462562
20
719.208241
10
1328.260177
20
700.615191
10
1287.927561
20
740.375710
0
TEXT
8
LABELS
10
1319.238704
20
683.721214
40
1.000000
1
neregulara_zvaigzne
0
LWPOLYLINE
8
PARTS
90
8
70
1
10
1320.038643
20
169.501958
10
1278.515846
20
144.462701
10
1336.129652
20
134.101632
10
1364.651493
20
105.768857
10
1361.775345
20
145.267915
10
1398.963562
20
197.910379
10
1347.761177
20
179.317329
10
1307.428561
20
219.077848
0
TEXT
8
LABELS
10
1338.739704
20
162.423353
40
1.000000
1
neregulara_zvaigzne
0
LWPOLYLINE
8
PARTS
90
8
70
1
10
1325.365262
20
1450.424110
10
1283.842465
20
1425.384853
10
1341.456271
20
1415.023784
10
1369.978112
20
1386.691009
10
1367.101964
20
1426.190067
10
1404.290181
20
1478.832531
10
1353.087796
20
1460.239481
10
1312.755180
20
1500.000000
0
TEXT
8
LABELS
10
1344.066323
20
1443.345505
40
1.000000
1
neregulara_zvaigzne
0
LWPOLYLINE
8
PARTS
90
8
70
1
10
1325.971266
20
1011.673484
10
1284.448469
20
986.634227
10
1342.062275
20
976.273158
10
1370.584116
20
947.940383
10
1367.707968
20
987.439441
10
1404.896185
20
1040.081905
10
1353.693800
20
1021.488855
10
1313.361184
20
1061.249374
0
TEXT
8
LABELS
10
1344.672327
20
1004.594878
40
1.000000
1
neregulara_zvaigzne
0
LWPOLYLINE
8
PARTS
90
8
70
1
10
1331.535957
20
1298.244772
10
1290.013160
20
1273.205515
10
1347.626966
20
1262.844446
10
1376.148807
20
1234.511671
10
1373.272659
20
1274.010729
10
1410.460877
20
1326.653193
10
1359.258491
20
1308.060143
10
1318.925876
20
1347.820662
0
TEXT
8
LABELS
10
1350.237018
20
1291.166167
40
1.000000
1
neregulara_zvaigzne
0
LWPOLYLINE
8
PARTS
90
8
70
1
10
1333.116756
20
1150.624906
10
1291.593959
20
1125.585649
10
1349.207765
20
1115.224580
10
1377.729606
20
1086.891805
10
1374.853458
20
1126.390863
10
1412.041675
20
1179.033327
10
1360.839290
20
1160.440277
10
1320.506674
20
1200.200796
0
TEXT
8
LABELS
10
1351.817817
20
1143.546301
40
1.000000
1
neregulara_zvaigzne
0
LWPOLYLINE
8
PARTS
90
8
70
1
10
1340.845042
20
594.166424
10
1299.322245
20
569.127167
10
1356.936051
20
558.766098
10
1385.457892
20
530.433323
10
1382.581744
20
569.932381
10
1419.769961
20
622.574845
10
1368.567576
20
603.981795
10
1328.234960
20
643.742314
0
TEXT
8
LABELS
10
1359.546103
20
587.087818
40
1.000000
1
neregulara_zvaigzne
0
LWPOLYLINE
8
PARTS
90
8
70
1
10
1341.932360
20
447.036767
10
1300.409563
20
421.997510
10
1358.023369
20
411.636441
10
1386.545210
20
383.303666
10
1383.669062
20
422.802724
10
1420.857279
20
475.445188
10
1369.654894
20
456.852138
10
1329.322278
20
496.612657
0
TEXT
8
LABELS
10
1360.633421
20
439.958161
40
1.000000
1
neregulara_zvaigzne
0
LWPOLYLINE
8
PARTS
90
8
70
1
10
1344.927568
20
772.930290
10
1303.404771
20
747.891033
10
1361.018577
20
737.529964
10
1389.540418
20
709.197189
10
1386.664270
20
748.696247
10
1423.852487
20
801.338711
10
1372.650102
20
782.745661
10
1332.317486
20
822.506180
0
TEXT
8
LABELS
10
1363.628629
20
765.851685
40
1.000000
1
neregulara_zvaigzne
0
LWPOLYLINE
8
PARTS
90
8
70
1
10
1345.103709
20
272.357717
10
1303.580912
20
247.318460
10
1361.194718
20
236.957391
10
1389.716559
20
208.624616
10
1386.840411
20
248.123674
10
1424.028628
20
300.766139
10
1372.826243
20
282.173089
10
1332.493627
20
321.933607
0
TEXT
8
LABELS
10
1363.804770
20
265.279112
40
1.000000
1
neregulara_zvaigzne
0
LWPOLYLINE
8
PARTS
90
8
70
1
10
1345.155101
20
918.753811
10
1303.632304
20
893.714554
10
1361.246110
20
883.353485
10
1389.767951
20
855.020710
10
1386.891803
20
894.519768
10
1424.080020
20
947.162232
10
1372.877635
20
928.569182
10
1332.545019
20
968.329701
0
TEXT
8
LABELS
10
1363.856162
20
911.675206
40
1.000000
1
neregulara_zvaigzne
0
LWPOLYLINE
8
PARTS
90
8
70
1
10
1374.385427
20
95.692025
10
1332.862630
20
70.652768
10
1390.476436
20
60.291699
10
1418.998277
20
31.958924
10
1416.122129
20
71.457982
10
1453.310346
20
124.100446
10
1402.107961
20
105.507396
10
1361.775345
20
145.267915
0
TEXT
8
LABELS
10
1393.086488
20
88.613420
40
1.000000
1
neregulara_zvaigzne
0
LWPOLYLINE
8
PARTS
90
8
70
1
10
1379.712045
20
1376.614177
10
1338.189248
20
1351.574920
10
1395.803054
20
1341.213851
10
1424.324895
20
1312.881076
10
1421.448747
20
1352.380134
10
1458.636964
20
1405.022598
10
1407.434579
20
1386.429548
10
1367.101964
20
1426.190067
0
TEXT
8
LABELS
10
1398.413106
20
1369.535572
40
1.000000
1
neregulara_zvaigzne
0
LWPOLYLINE
8
PARTS
90
8
70
1
10
1385.882742
20
1224.434839
10
1344.359944
20
1199.395582
10
1401.973751
20
1189.034513
10
1430.495592
20
1160.701738
10
1427.619443
20
1200.200796
10
1464.807661
20
1252.843260
10
1413.605276
20
1234.250210
10
1373.272660
20
1274.010729
0
TEXT
8
LABELS
10
1404.583803
20
1217.356234
40
1.000000
1
neregulara_zvaigzne
0
LWPOLYLINE
8
PARTS
90
8
70
1
10
1387.463540
20
1076.814973
10
1345.940743
20
1051.775716
10
1403.554549
20
1041.414647
10
1432.076390
20
1013.081872
10
1429.200242
20
1052.580930
10
1466.388459
20
1105.223394
10
1415.186074
20
1086.630344
10
1374.853458
20
1126.390863
0
TEXT
8
LABELS
10
1406.164601
20
1069.736368
40
1.000000
1
neregulara_zvaigzne
0
LWPOLYLINE
8
PARTS
90
8
70
1
10
1392.019588
20
669.557247
10
1350.496791
20
644.517990
10
1408.110597
20
634.156921
10
1436.632438
20
605.824146
10
1433.756290
20
645.323204
10
1470.944507
20
697.965668
10
1419.742122
20
679.372618
10
1379.409506
20
719.133137
0
TEXT
8
LABELS
10
1410.720649
20
662.478641
40
1.000000
1
neregulara_zvaigzne
0
LWPOLYLINE
8
PARTS
90
8
70
1
10
1395.191826
20
520.356491
10
1353.669029
20
495.317234
10
1411.282835
20
484.956165
10
1439.804676
20
456.623390
10
1436.928528
20
496.122448
10
1474.116745
20
548.764912
10
1422.914360
20
530.171862
10
1382.581744
20
569.932381
0
TEXT
8
LABELS
10
1413.892887
20
513.277885
40
1.000000
1
neregulara_zvaigzne
0
LWPOLYLINE
8
PARTS
90
8
70
1
10
1396.279144
20
373.226834
10
1354.756347
20
348.187577
10
1412.370153
20
337.826508
10
1440.891994
20
309.493733
10
1438.015846
20
348.992791
10
1475.204063
20
401.635255
10
1424.001678
20
383.042205
10
1383.669062
20
422.802724
0
TEXT
8
LABELS
10
1414.980205
20
366.148228
40
1.000000
1
neregulara_zvaigzne
0
LWPOLYLINE
8
PARTS
90
8
70
1
10
1399.501885
20
844.943878
10
1357.979088
20
819.904621
10
1415.592894
20
809.543552
10
1444.114735
20
781.210777
10
1441.238587
20
820.709835
10
1478.426804
20
873.352299
10
1427.224419
20
854.759249
10
1386.891803
20
894.519768
0
TEXT
8
LABELS
10
1418.202946
20
837.865273
40
1.000000
1
neregulara_zvaigzne
0
LWPOLYLINE
8
PARTS
90
8
70
1
10
1411.454507
20
981.939335
10
1369.931710
20
956.900078
10
1427.545516
20
946.539009
10
1456.067357
20
918.206234
10
1453.191209
20
957.705292
10
1490.379426
20
1010.347756
10
1439.177041
20
991.754706
10
1398.844425
20
1031.515225
0
TEXT
8
LABELS
10
1430.155568
20
974.860730
40
1.000000
1
neregulara_zvaigzne
0
LWPOLYLINE
8
PARTS
90
8
70
1
10
1412.800222
20
183.758017
10
1371.277425
20
158.718760
10
1428.891231
20
148.357691
10
1457.413072
20
120.024916
10
1454.536924
20
159.523974
10
1491.725141
20
212.166438
10
1440.522756
20
193.573388
10
1400.190140
20
233.333907
0
TEXT
8
LABELS
10
1431.501283
20
176.679411
40
1.000000
1
neregulara_zvaigzne
0
ENDSEC
0
EOF
